<svg width="21" height="20" viewBox="0 0 21 20" fill="none" xmlns="http://www.w3.org/2000/svg">
<path d="M15.4424 7.29297C15.8529 7.68397 15.8529 8.31603 15.4424 8.70703L10.1924 13.707C9.9876 13.902 9.7188 14 9.45 14C9.1812 14 8.9124 13.902 8.70765 13.707L5.55765 10.707C5.1471 10.316 5.1471 9.68397 5.55765 9.29297C5.9682 8.90197 6.6318 8.90197 7.04235 9.29297L9.45 11.5861L13.9576 7.29297C14.3682 6.90197 15.0318 6.90197 15.4424 7.29297ZM21 10C21 15.514 16.2897 20 10.5 20C4.7103 20 0 15.514 0 10C0 4.486 4.7103 0 10.5 0C16.2897 0 21 4.486 21 10ZM18.9 10C18.9 5.589 15.1315 2 10.5 2C5.86845 2 2.1 5.589 2.1 10C2.1 14.411 5.86845 18 10.5 18C15.1315 18 18.9 14.411 18.9 10Z" fill="#086B8D"/>
</svg>
