<svg width="19" height="20" viewBox="0 0 19 20" fill="none" xmlns="http://www.w3.org/2000/svg">
<path d="M12.125 0.833313H6.875C3.4975 0.833313 0.75 3.71256 0.75 7.24998V12.75C0.75 16.2874 3.4975 19.1666 6.875 19.1666H12.125C15.5025 19.1666 18.25 16.2874 18.25 12.75V7.24998C18.25 3.71256 15.5025 0.833313 12.125 0.833313ZM16.5 12.75C16.5 15.2772 14.5374 17.3333 12.125 17.3333H6.875C4.46263 17.3333 2.5 15.2772 2.5 12.75V7.24998C2.5 4.72273 4.46263 2.66665 6.875 2.66665H12.125C14.5374 2.66665 16.5 4.72273 16.5 7.24998V12.75ZM13.875 9.99998C13.875 10.5069 13.483 10.9166 13 10.9166H6C5.517 10.9166 5.125 10.5069 5.125 9.99998C5.125 9.49306 5.517 9.08331 6 9.08331H13C13.483 9.08331 13.875 9.49306 13.875 9.99998Z" fill="#FF5050"/>
</svg>
