<svg width="46" height="50" viewBox="0 0 46 50" fill="none" xmlns="http://www.w3.org/2000/svg">
<path d="M43.8344 10.13C36.1694 7.57501 26.842 2.75493 24.8645 0.744934C24.3995 0.274934 23.7645 0.005 23.102 0C22.417 0.015 21.7995 0.25491 21.3295 0.71991C18.942 3.07241 11.6819 7.78742 2.36694 10.4199C1.28944 10.7224 0.546875 11.7075 0.546875 12.825C0.546875 33.7225 3.81191 44.6026 22.3619 49.9051C22.5869 49.9676 22.8195 50 23.0495 50C23.2795 50 23.5119 49.9676 23.7369 49.9051C42.2819 44.6051 45.5469 33.62 45.5469 12.5C45.5444 11.4225 44.8569 10.47 43.8344 10.13ZM23.0469 44.895C8.68688 40.5875 5.72691 33.0101 5.55191 14.6826C13.3894 12.2001 19.7045 8.46 23.1395 5.755C27.0595 8.51501 34.5869 12.1075 40.5344 14.2725C40.3719 32.9 37.4319 40.5775 23.0469 44.895Z" fill="#3572FF"/>
<path d="M43.8344 10.13C36.1694 7.57501 26.842 2.75493 24.8645 0.744934C24.3995 0.274934 23.7645 0.005 23.102 0C22.417 0.015 21.7995 0.25491 21.3295 0.71991C18.942 3.07241 11.6819 7.78742 2.36694 10.4199C1.28944 10.7224 0.546875 11.7075 0.546875 12.825C0.546875 33.7225 3.81191 44.6026 22.3619 49.9051C22.5869 49.9676 22.8195 50 23.0495 50C23.2795 50 23.5119 49.9676 23.7369 49.9051C42.2819 44.6051 45.5469 33.62 45.5469 12.5C45.5444 11.4225 44.8569 10.47 43.8344 10.13ZM23.0469 44.895C8.68688 40.5875 5.72691 33.0101 5.55191 14.6826C13.3894 12.2001 19.7045 8.46 23.1395 5.755C27.0595 8.51501 34.5869 12.1075 40.5344 14.2725C40.3719 32.9 37.4319 40.5775 23.0469 44.895Z" fill="url(#paint0_linear_243_50)"/>
<defs>
<linearGradient id="paint0_linear_243_50" x1="23.0469" y1="0" x2="23.0469" y2="50" gradientUnits="userSpaceOnUse">
<stop stop-color="#42D6FF"/>
<stop offset="1" stop-color="#1C7A95"/>
</linearGradient>
</defs>
</svg>
