<svg width="30" height="25" viewBox="0 0 30 25" fill="none" xmlns="http://www.w3.org/2000/svg">
<path d="M30 23.2916C30 24.1441 29.328 24.8333 28.5 24.8333L9 24.8333C8.172 24.8333 7.5 24.1441 7.5 23.2916C7.5 22.439 8.172 21.7499 9 21.7499L28.5 21.7499C29.328 21.7499 30 22.439 30 23.2916ZM1.5 14.0416L28.5 14.0416C29.328 14.0416 30 13.3525 30 12.4999C30 11.6474 29.328 10.9583 28.5 10.9583L1.5 10.9583C0.671996 10.9583 -2.66195e-06 11.6474 -2.73648e-06 12.4999C-2.81101e-06 13.3525 0.671996 14.0416 1.5 14.0416ZM15 3.24992L28.5 3.24992C29.328 3.24992 30 2.56079 30 1.70825C30 0.855713 29.328 0.166588 28.5 0.166588L15 0.166587C14.172 0.166586 13.5 0.855711 13.5 1.70825C13.5 2.56079 14.172 3.24992 15 3.24992Z" fill="white"/>
</svg>
