<svg width="21" height="17" viewBox="0 0 21 17" fill="none" xmlns="http://www.w3.org/2000/svg">
<path d="M20.082 15.2084C20.082 15.7384 19.6527 16.1667 19.1237 16.1667L6.66536 16.1667C6.13636 16.1667 5.70703 15.7384 5.70703 15.2084C5.70703 14.6785 6.13636 14.2501 6.66536 14.2501L19.1237 14.2501C19.6527 14.2501 20.082 14.6785 20.082 15.2084ZM1.8737 9.45841L19.1237 9.45842C19.6527 9.45842 20.082 9.03004 20.082 8.50008C20.082 7.97012 19.6527 7.54175 19.1237 7.54175L1.8737 7.54175C1.34469 7.54175 0.915362 7.97012 0.915362 8.50008C0.915362 9.03004 1.34469 9.45841 1.8737 9.45841ZM10.4987 2.75008L19.1237 2.75008C19.6527 2.75008 20.082 2.32171 20.082 1.79175C20.082 1.26179 19.6527 0.833417 19.1237 0.833417L10.4987 0.833416C9.9697 0.833416 9.54036 1.26179 9.54036 1.79175C9.54036 2.32171 9.9697 2.75008 10.4987 2.75008Z" fill="white"/>
</svg>
