<svg width="1919" height="1003" viewBox="0 0 1919 1003" fill="none" xmlns="http://www.w3.org/2000/svg">
<path opacity="0.4" d="M1065.05 244.55C1065.91 244.55 1066.6 243.854 1066.6 242.994C1066.6 242.135 1065.91 241.438 1065.05 241.438C1064.19 241.438 1063.49 242.135 1063.49 242.994C1063.49 243.854 1064.19 244.55 1065.05 244.55Z" fill="white"/>
<path opacity="0.4" d="M887.111 300.829C887.971 300.829 888.667 300.133 888.667 299.273C888.667 298.414 887.971 297.717 887.111 297.717C886.251 297.717 885.555 298.414 885.555 299.273C885.555 300.133 886.251 300.829 887.111 300.829Z" fill="white"/>
<path opacity="0.4" d="M1088.98 384.988C1089.84 384.988 1090.53 384.291 1090.53 383.432C1090.53 382.573 1089.84 381.876 1088.98 381.876C1088.12 381.876 1087.42 382.573 1087.42 383.432C1087.42 384.291 1088.12 384.988 1088.98 384.988Z" fill="white"/>
<path opacity="0.4" d="M1133.66 457.736C1134.52 457.736 1135.21 457.039 1135.21 456.18C1135.21 455.32 1134.52 454.624 1133.66 454.624C1132.8 454.624 1132.1 455.32 1132.1 456.18C1132.1 457.039 1132.8 457.736 1133.66 457.736Z" fill="white"/>
<path opacity="0.4" d="M1043.85 353.218C1044.7 353.218 1045.4 352.521 1045.4 351.662C1045.4 350.802 1044.7 350.106 1043.85 350.106C1042.99 350.106 1042.29 350.802 1042.29 351.662C1042.29 352.521 1042.99 353.218 1043.85 353.218Z" fill="white"/>
<path opacity="0.4" d="M1215.5 339.926C1216.36 339.926 1217.05 339.229 1217.05 338.37C1217.05 337.511 1216.36 336.814 1215.5 336.814C1214.64 336.814 1213.94 337.511 1213.94 338.37C1213.94 339.229 1214.64 339.926 1215.5 339.926Z" fill="white"/>
<path opacity="0.4" d="M1003.45 202.925C1004.31 202.925 1005 202.228 1005 201.369C1005 200.51 1004.31 199.813 1003.45 199.813C1002.59 199.813 1001.89 200.51 1001.89 201.369C1001.89 202.228 1002.59 202.925 1003.45 202.925Z" fill="white"/>
<path opacity="0.4" d="M905.658 231.194C906.517 231.194 907.214 230.497 907.214 229.638C907.214 228.778 906.517 228.082 905.658 228.082C904.798 228.082 904.102 228.778 904.102 229.638C904.102 230.497 904.798 231.194 905.658 231.194Z" fill="white"/>
<path opacity="0.4" d="M856.443 232.491C857.303 232.491 857.999 231.794 857.999 230.935C857.999 230.075 857.303 229.379 856.443 229.379C855.584 229.379 854.887 230.075 854.887 230.935C854.887 231.794 855.584 232.491 856.443 232.491Z" fill="white"/>
<path opacity="0.4" d="M829.4 318.011C830.26 318.011 830.956 317.314 830.956 316.455C830.956 315.596 830.26 314.899 829.4 314.899C828.541 314.899 827.844 315.596 827.844 316.455C827.844 317.314 828.541 318.011 829.4 318.011Z" fill="white"/>
<path opacity="0.4" d="M860.978 365.018C861.838 365.018 862.535 364.322 862.535 363.462C862.535 362.603 861.838 361.906 860.978 361.906C860.119 361.906 859.422 362.603 859.422 363.462C859.422 364.322 860.119 365.018 860.978 365.018Z" fill="white"/>
<path opacity="0.4" d="M751.127 477.641C751.986 477.641 752.683 476.944 752.683 476.085C752.683 475.226 751.986 474.529 751.127 474.529C750.267 474.529 749.57 475.226 749.57 476.085C749.57 476.944 750.267 477.641 751.127 477.641Z" fill="white"/>
<path opacity="0.4" d="M762.154 447.945C763.013 447.945 763.71 447.249 763.71 446.389C763.71 445.53 763.013 444.833 762.154 444.833C761.294 444.833 760.598 445.53 760.598 446.389C760.598 447.249 761.294 447.945 762.154 447.945Z" fill="white"/>
<path opacity="0.4" d="M700.033 614.448C700.892 614.448 701.589 613.751 701.589 612.892C701.589 612.032 700.892 611.335 700.033 611.335C699.173 611.335 698.477 612.032 698.477 612.892C698.477 613.751 699.173 614.448 700.033 614.448Z" fill="white"/>
<path opacity="0.4" d="M724.416 564.328C725.275 564.328 725.972 563.632 725.972 562.772C725.972 561.913 725.275 561.216 724.416 561.216C723.556 561.216 722.859 561.913 722.859 562.772C722.859 563.632 723.556 564.328 724.416 564.328Z" fill="white"/>
<path opacity="0.4" d="M741.857 706.128C742.717 706.128 743.413 705.431 743.413 704.572C743.413 703.712 742.717 703.015 741.857 703.015C740.998 703.015 740.301 703.712 740.301 704.572C740.301 705.431 740.998 706.128 741.857 706.128Z" fill="white"/>
<path opacity="0.4" d="M686.802 739C687.662 739 688.359 738.303 688.359 737.444C688.359 736.585 687.662 735.888 686.802 735.888C685.943 735.888 685.246 736.585 685.246 737.444C685.246 738.303 685.943 739 686.802 739Z" fill="white"/>
<path opacity="0.4" d="M952.025 723.504C952.885 723.504 953.581 722.808 953.581 721.948C953.581 721.089 952.885 720.392 952.025 720.392C951.166 720.392 950.469 721.089 950.469 721.948C950.469 722.808 951.166 723.504 952.025 723.504Z" fill="white"/>
<path opacity="0.4" d="M1053.7 711.38C1054.56 711.38 1055.26 710.683 1055.26 709.823C1055.26 708.964 1054.56 708.267 1053.7 708.267C1052.85 708.267 1052.15 708.964 1052.15 709.823C1052.15 710.683 1052.85 711.38 1053.7 711.38Z" fill="white"/>
<path opacity="0.4" d="M1076.98 651.599C1077.84 651.599 1078.54 650.903 1078.54 650.043C1078.54 649.184 1077.84 648.487 1076.98 648.487C1076.12 648.487 1075.43 649.184 1075.43 650.043C1075.43 650.903 1076.12 651.599 1076.98 651.599Z" fill="white"/>
<path opacity="0.4" d="M966.677 637.011C967.537 637.011 968.234 636.314 968.234 635.455C968.234 634.596 967.537 633.899 966.677 633.899C965.818 633.899 965.121 634.596 965.121 635.455C965.121 636.314 965.818 637.011 966.677 637.011Z" fill="white"/>
<path opacity="0.4" d="M1221.53 620.802C1222.38 620.802 1223.08 620.105 1223.08 619.246C1223.08 618.386 1222.38 617.689 1221.53 617.689C1220.67 617.689 1219.97 618.386 1219.97 619.246C1219.97 620.105 1220.67 620.802 1221.53 620.802Z" fill="white"/>
<path opacity="0.4" d="M1157.91 609.909C1158.77 609.909 1159.47 609.212 1159.47 608.353C1159.47 607.494 1158.77 606.797 1157.91 606.797C1157.05 606.797 1156.36 607.494 1156.36 608.353C1156.36 609.212 1157.05 609.909 1157.91 609.909Z" fill="white"/>
<path opacity="0.4" d="M1225.35 560.762C1226.21 560.762 1226.91 560.065 1226.91 559.206C1226.91 558.347 1226.21 557.65 1225.35 557.65C1224.49 557.65 1223.8 558.347 1223.8 559.206C1223.8 560.065 1224.49 560.762 1225.35 560.762Z" fill="white"/>
<path opacity="0.4" d="M1242.67 488.533C1243.53 488.533 1244.22 487.837 1244.22 486.977C1244.22 486.118 1243.53 485.421 1242.67 485.421C1241.81 485.421 1241.11 486.118 1241.11 486.977C1241.11 487.837 1241.81 488.533 1242.67 488.533Z" fill="white"/>
<path opacity="0.4" d="M1209.66 465.192C1210.52 465.192 1211.22 464.495 1211.22 463.636C1211.22 462.776 1210.52 462.08 1209.66 462.08C1208.8 462.08 1208.11 462.776 1208.11 463.636C1208.11 464.495 1208.8 465.192 1209.66 465.192Z" fill="white"/>
<path opacity="0.4" d="M1223.73 400.031C1224.59 400.031 1225.28 399.334 1225.28 398.475C1225.28 397.615 1224.59 396.918 1223.73 396.918C1222.87 396.918 1222.17 397.615 1222.17 398.475C1222.17 399.334 1222.87 400.031 1223.73 400.031Z" fill="white"/>
<path opacity="0.4" d="M1232.1 400.031C1232.95 400.031 1233.65 399.334 1233.65 398.475C1233.65 397.615 1232.95 396.918 1232.1 396.918C1231.24 396.918 1230.54 397.615 1230.54 398.475C1230.54 399.334 1231.24 400.031 1232.1 400.031Z" fill="white"/>
<path opacity="0.4" d="M1048.97 283.777C1049.83 283.777 1050.53 283.08 1050.53 282.221C1050.53 281.361 1049.83 280.665 1048.97 280.665C1048.11 280.665 1047.41 281.361 1047.41 282.221C1047.41 283.08 1048.11 283.777 1048.97 283.777Z" fill="white"/>
<path opacity="0.4" d="M933.865 332.859C934.724 332.859 935.421 332.162 935.421 331.303C935.421 330.444 934.724 329.747 933.865 329.747C933.005 329.747 932.309 330.444 932.309 331.303C932.309 332.162 933.005 332.859 933.865 332.859Z" fill="white"/>
<path opacity="0.4" d="M1012.98 351.078C1013.84 351.078 1014.53 350.382 1014.53 349.522C1014.53 348.663 1013.84 347.966 1012.98 347.966C1012.12 347.966 1011.42 348.663 1011.42 349.522C1011.42 350.382 1012.12 351.078 1012.98 351.078Z" fill="white"/>
<path opacity="0.4" d="M741.466 352.44C742.326 352.44 743.023 351.743 743.023 350.884C743.023 350.024 742.326 349.328 741.466 349.328C740.607 349.328 739.91 350.024 739.91 350.884C739.91 351.743 740.607 352.44 741.466 352.44Z" fill="white"/>
<path opacity="0.4" d="M694.908 421.037C695.767 421.037 696.464 420.341 696.464 419.481C696.464 418.622 695.767 417.925 694.908 417.925C694.048 417.925 693.352 418.622 693.352 419.481C693.352 420.341 694.048 421.037 694.908 421.037Z" fill="white"/>
<path opacity="0.4" d="M676.556 472.584C677.416 472.584 678.113 471.887 678.113 471.028C678.113 470.168 677.416 469.471 676.556 469.471C675.697 469.471 675 470.168 675 471.028C675 471.887 675.697 472.584 676.556 472.584Z" fill="white"/>
<path opacity="0.4" d="M687.709 320.67C688.568 320.67 689.265 319.973 689.265 319.114C689.265 318.254 688.568 317.558 687.709 317.558C686.849 317.558 686.152 318.254 686.152 319.114C686.152 319.973 686.849 320.67 687.709 320.67Z" fill="white"/>
<path opacity="0.4" d="M696.4 202.147C697.26 202.147 697.956 201.45 697.956 200.591C697.956 199.732 697.26 199.035 696.4 199.035C695.541 199.035 694.844 199.732 694.844 200.591C694.844 201.45 695.541 202.147 696.4 202.147Z" fill="white"/>
<path opacity="0.4" d="M935.033 184.576C935.892 184.576 936.589 183.879 936.589 183.02C936.589 182.161 935.892 181.464 935.033 181.464C934.173 181.464 933.477 182.161 933.477 183.02C933.477 183.879 934.173 184.576 935.033 184.576Z" fill="white"/>
<path opacity="0.4" d="M873.689 200.461C874.549 200.461 875.245 199.764 875.245 198.905C875.245 198.045 874.549 197.349 873.689 197.349C872.83 197.349 872.133 198.045 872.133 198.905C872.133 199.764 872.83 200.461 873.689 200.461Z" fill="white"/>
<path opacity="0.4" d="M1051.44 182.112C1052.29 182.112 1052.99 181.415 1052.99 180.556C1052.99 179.697 1052.29 179 1051.44 179C1050.58 179 1049.88 179.697 1049.88 180.556C1049.88 181.415 1050.58 182.112 1051.44 182.112Z" fill="white"/>
<path opacity="0.4" d="M1035.42 229.832C1036.28 229.832 1036.97 229.136 1036.97 228.276C1036.97 227.417 1036.28 226.72 1035.42 226.72C1034.56 226.72 1033.86 227.417 1033.86 228.276C1033.86 229.136 1034.56 229.832 1035.42 229.832Z" fill="white"/>
<path opacity="0.4" d="M1007.08 280.082C1007.94 280.082 1008.64 279.385 1008.64 278.526C1008.64 277.666 1007.94 276.969 1007.08 276.969C1006.22 276.969 1005.52 277.666 1005.52 278.526C1005.52 279.385 1006.22 280.082 1007.08 280.082Z" fill="white"/>
<path opacity="0.4" d="M901.963 339.019C902.822 339.019 903.519 338.322 903.519 337.463C903.519 336.603 902.822 335.906 901.963 335.906C901.103 335.906 900.406 336.603 900.406 337.463C900.406 338.322 901.103 339.019 901.963 339.019Z" fill="white"/>
<path opacity="0.4" d="M866.814 360.61C867.674 360.61 868.37 359.913 868.37 359.054C868.37 358.194 867.674 357.498 866.814 357.498C865.955 357.498 865.258 358.194 865.258 359.054C865.258 359.913 865.955 360.61 866.814 360.61Z" fill="white"/>
<path opacity="0.4" d="M813.576 427.133C814.435 427.133 815.132 426.436 815.132 425.577C815.132 424.717 814.435 424.021 813.576 424.021C812.716 424.021 812.02 424.717 812.02 425.577C812.02 426.436 812.716 427.133 813.576 427.133Z" fill="white"/>
<path opacity="0.4" d="M803.853 459.227C804.713 459.227 805.41 458.53 805.41 457.671C805.41 456.812 804.713 456.115 803.853 456.115C802.994 456.115 802.297 456.812 802.297 457.671C802.297 458.53 802.994 459.227 803.853 459.227Z" fill="white"/>
<path opacity="0.4" d="M813.642 510.708C814.502 510.708 815.199 510.011 815.199 509.152C815.199 508.293 814.502 507.596 813.642 507.596C812.783 507.596 812.086 508.293 812.086 509.152C812.086 510.011 812.783 510.708 813.642 510.708Z" fill="white"/>
<path opacity="0.4" d="M829.658 549.934C830.517 549.934 831.214 549.237 831.214 548.378C831.214 547.518 830.517 546.822 829.658 546.822C828.798 546.822 828.102 547.518 828.102 548.378C828.102 549.237 828.798 549.934 829.658 549.934Z" fill="white"/>
<path opacity="0.4" d="M913.83 572.887C914.689 572.887 915.386 572.19 915.386 571.331C915.386 570.472 914.689 569.775 913.83 569.775C912.97 569.775 912.273 570.472 912.273 571.331C912.273 572.19 912.97 572.887 913.83 572.887Z" fill="white"/>
<path opacity="0.4" d="M980.037 582.677C980.896 582.677 981.593 581.98 981.593 581.121C981.593 580.262 980.896 579.565 980.037 579.565C979.177 579.565 978.48 580.262 978.48 581.121C978.48 581.98 979.177 582.677 980.037 582.677Z" fill="white"/>
<path opacity="0.4" d="M1004.74 589.096C1005.6 589.096 1006.3 588.4 1006.3 587.54C1006.3 586.681 1005.6 585.984 1004.74 585.984C1003.88 585.984 1003.19 586.681 1003.19 587.54C1003.19 588.4 1003.88 589.096 1004.74 589.096Z" fill="white"/>
<path opacity="0.4" d="M1080.74 565.949C1081.6 565.949 1082.3 565.252 1082.3 564.393C1082.3 563.534 1081.6 562.837 1080.74 562.837C1079.88 562.837 1079.19 563.534 1079.19 564.393C1079.19 565.252 1079.88 565.949 1080.74 565.949Z" fill="white"/>
<path opacity="0.4" d="M1085.54 519.461C1086.4 519.461 1087.1 518.764 1087.1 517.905C1087.1 517.045 1086.4 516.349 1085.54 516.349C1084.68 516.349 1083.98 517.045 1083.98 517.905C1083.98 518.764 1084.68 519.461 1085.54 519.461Z" fill="white"/>
<path opacity="0.4" d="M1069.2 431.023C1070.06 431.023 1070.76 430.326 1070.76 429.466C1070.76 428.607 1070.06 427.91 1069.2 427.91C1068.34 427.91 1067.64 428.607 1067.64 429.466C1067.64 430.326 1068.34 431.023 1069.2 431.023Z" fill="white"/>
<path opacity="0.4" d="M1048.26 413.711C1049.12 413.711 1049.81 413.015 1049.81 412.155C1049.81 411.296 1049.12 410.599 1048.26 410.599C1047.4 410.599 1046.7 411.296 1046.7 412.155C1046.7 413.015 1047.4 413.711 1048.26 413.711Z" fill="white"/>
<path opacity="0.4" d="M1048.58 376.819C1049.44 376.819 1050.14 376.122 1050.14 375.263C1050.14 374.403 1049.44 373.707 1048.58 373.707C1047.72 373.707 1047.02 374.403 1047.02 375.263C1047.02 376.122 1047.72 376.819 1048.58 376.819Z" fill="white"/>
<path opacity="0.4" d="M851.642 390.564C852.502 390.564 853.199 389.867 853.199 389.008C853.199 388.148 852.502 387.452 851.642 387.452C850.783 387.452 850.086 388.148 850.086 389.008C850.086 389.867 850.783 390.564 851.642 390.564Z" fill="white"/>
<path opacity="0.4" d="M844.377 416.369C845.236 416.369 845.933 415.673 845.933 414.813C845.933 413.954 845.236 413.257 844.377 413.257C843.517 413.257 842.82 413.954 842.82 414.813C842.82 415.673 843.517 416.369 844.377 416.369Z" fill="white"/>
<path opacity="0.4" d="M845.74 481.272C846.599 481.272 847.296 480.575 847.296 479.716C847.296 478.856 846.599 478.16 845.74 478.16C844.88 478.16 844.184 478.856 844.184 479.716C844.184 480.575 844.88 481.272 845.74 481.272Z" fill="white"/>
<path opacity="0.4" d="M1030.03 548.703C1030.89 548.703 1031.59 548.006 1031.59 547.147C1031.59 546.287 1030.89 545.591 1030.03 545.591C1029.17 545.591 1028.48 546.287 1028.48 547.147C1028.48 548.006 1029.17 548.703 1030.03 548.703Z" fill="white"/>
<path opacity="0.4" d="M1045.92 531.391C1046.78 531.391 1047.48 530.694 1047.48 529.835C1047.48 528.976 1046.78 528.279 1045.92 528.279C1045.06 528.279 1044.37 528.976 1044.37 529.835C1044.37 530.694 1045.06 531.391 1045.92 531.391Z" fill="white"/>
<path opacity="0.4" d="M1062.01 520.304C1062.87 520.304 1063.56 519.607 1063.56 518.748C1063.56 517.889 1062.87 517.192 1062.01 517.192C1061.15 517.192 1060.45 517.889 1060.45 518.748C1060.45 519.607 1061.15 520.304 1062.01 520.304Z" fill="white"/>
<path opacity="0.4" d="M1095.33 503.252C1096.19 503.252 1096.89 502.555 1096.89 501.696C1096.89 500.836 1096.19 500.139 1095.33 500.139C1094.47 500.139 1093.78 500.836 1093.78 501.696C1093.78 502.555 1094.47 503.252 1095.33 503.252Z" fill="white"/>
<path opacity="0.4" d="M1115.95 471.417C1116.81 471.417 1117.51 470.72 1117.51 469.861C1117.51 469.001 1116.81 468.304 1115.95 468.304C1115.1 468.304 1114.4 469.001 1114.4 469.861C1114.4 470.72 1115.1 471.417 1115.95 471.417Z" fill="white"/>
<path opacity="0.4" d="M1123.67 439.257C1124.53 439.257 1125.23 438.56 1125.23 437.701C1125.23 436.841 1124.53 436.145 1123.67 436.145C1122.81 436.145 1122.12 436.841 1122.12 437.701C1122.12 438.56 1122.81 439.257 1123.67 439.257Z" fill="white"/>
<path opacity="0.4" d="M1126.4 420.584C1127.26 420.584 1127.95 419.887 1127.95 419.028C1127.95 418.169 1127.26 417.472 1126.4 417.472C1125.54 417.472 1124.84 418.169 1124.84 419.028C1124.84 419.887 1125.54 420.584 1126.4 420.584Z" fill="white"/>
<path opacity="0.4" d="M1092.74 419.741C1093.6 419.741 1094.3 419.044 1094.3 418.185C1094.3 417.326 1093.6 416.629 1092.74 416.629C1091.88 416.629 1091.18 417.326 1091.18 418.185C1091.18 419.044 1091.88 419.741 1092.74 419.741Z" fill="white"/>
<path opacity="0.4" d="M1107.4 384.47C1108.26 384.47 1108.95 383.773 1108.95 382.914C1108.95 382.054 1108.26 381.357 1107.4 381.357C1106.54 381.357 1105.84 382.054 1105.84 382.914C1105.84 383.773 1106.54 384.47 1107.4 384.47Z" fill="white"/>
<path opacity="0.4" d="M1112.33 387.841C1113.19 387.841 1113.88 387.145 1113.88 386.285C1113.88 385.426 1113.19 384.729 1112.33 384.729C1111.47 384.729 1110.77 385.426 1110.77 386.285C1110.77 387.145 1111.47 387.841 1112.33 387.841Z" fill="white"/>
<path opacity="0.4" d="M1153.76 457.736C1154.62 457.736 1155.32 457.039 1155.32 456.18C1155.32 455.32 1154.62 454.624 1153.76 454.624C1152.9 454.624 1152.2 455.32 1152.2 456.18C1152.2 457.039 1152.9 457.736 1153.76 457.736Z" fill="white"/>
<path opacity="0.4" d="M1136.32 491.127C1137.18 491.127 1137.87 490.431 1137.87 489.571C1137.87 488.712 1137.18 488.015 1136.32 488.015C1135.46 488.015 1134.76 488.712 1134.76 489.571C1134.76 490.431 1135.46 491.127 1136.32 491.127Z" fill="white"/>
<path opacity="0.4" d="M1133.66 489.182C1134.52 489.182 1135.21 488.485 1135.21 487.626C1135.21 486.766 1134.52 486.07 1133.66 486.07C1132.8 486.07 1132.1 486.766 1132.1 487.626C1132.1 488.485 1132.8 489.182 1133.66 489.182Z" fill="white"/>
<path opacity="0.4" d="M1088.07 599.081C1088.93 599.081 1089.63 598.384 1089.63 597.525C1089.63 596.666 1088.93 595.969 1088.07 595.969C1087.21 595.969 1086.52 596.666 1086.52 597.525C1086.52 598.384 1087.21 599.081 1088.07 599.081Z" fill="white"/>
<path opacity="0.88" d="M159.788 61.031C160.544 61.1918 161.288 60.7089 161.449 59.9523C161.61 59.1958 161.127 58.4521 160.37 58.2912C159.613 58.1304 158.87 58.6133 158.709 59.3699C158.548 60.1265 159.031 60.8701 159.788 61.031Z" fill="white"/>
<path opacity="0.87" d="M266.54 113.375C267.153 113.461 267.719 113.034 267.806 112.421C267.892 111.809 267.465 111.242 266.852 111.156C266.239 111.07 265.672 111.497 265.586 112.109C265.5 112.722 265.927 113.289 266.54 113.375Z" fill="white"/>
<path opacity="0.98" d="M421.226 7.10193C420.668 6.61697 419.823 6.67599 419.338 7.23379C418.853 7.79159 418.912 8.63693 419.47 9.12189C420.028 9.60685 420.874 9.54781 421.358 8.99001C421.843 8.43221 421.784 7.5869 421.226 7.10193Z" fill="white"/>
<path opacity="0.73" d="M114.963 351.288C114.213 351.475 113.756 352.235 113.943 352.986C114.13 353.736 114.89 354.193 115.641 354.006C116.391 353.818 116.848 353.058 116.661 352.308C116.474 351.557 115.714 351.101 114.963 351.288Z" fill="white"/>
<path opacity="0.76" d="M307.516 261.386C307.318 262.178 307.8 262.981 308.592 263.178C309.385 263.376 310.187 262.894 310.384 262.101C310.582 261.309 310.1 260.507 309.308 260.309C308.516 260.112 307.713 260.594 307.516 261.386Z" fill="white"/>
<path opacity="0.84" d="M388.244 346.266C388.351 346.936 388.98 347.394 389.651 347.288C390.322 347.182 390.779 346.552 390.673 345.881C390.567 345.21 389.937 344.753 389.266 344.859C388.596 344.965 388.138 345.595 388.244 346.266Z" fill="white"/>
<path opacity="0.83" d="M125.344 440.281C126.144 440.862 127.263 440.685 127.844 439.885C128.425 439.086 128.248 437.967 127.448 437.386C126.648 436.805 125.529 436.982 124.948 437.781C124.367 438.581 124.545 439.7 125.344 440.281Z" fill="white"/>
<path opacity="0.89" d="M280.886 412.9C280.254 412.268 279.229 412.268 278.597 412.9C277.965 413.532 277.966 414.557 278.598 415.189C279.23 415.821 280.255 415.821 280.887 415.189C281.519 414.557 281.518 413.532 280.886 412.9Z" fill="white"/>
<path opacity="0.88" d="M148.139 132.563C147.285 132.925 146.886 133.912 147.249 134.767C147.612 135.621 148.598 136.019 149.453 135.657C150.307 135.294 150.706 134.307 150.343 133.453C149.981 132.599 148.994 132.2 148.139 132.563Z" fill="white"/>
<path opacity="0.97" d="M463.29 91.7911C462.627 91.3441 461.727 91.5189 461.28 92.1815C460.834 92.8441 461.008 93.7436 461.671 94.1906C462.334 94.6376 463.233 94.4629 463.68 93.8002C464.127 93.1376 463.952 92.2381 463.29 91.7911Z" fill="white"/>
<path opacity="0.82" d="M976.781 112.445C977.767 112.377 978.511 111.521 978.442 110.535C978.373 109.55 977.518 108.806 976.532 108.875C975.545 108.944 974.802 109.799 974.871 110.785C974.94 111.771 975.795 112.514 976.781 112.445Z" fill="white"/>
<path opacity="0.97" d="M315.202 305.995C315.166 307.026 315.973 307.891 317.003 307.927C318.034 307.963 318.899 307.156 318.935 306.125C318.971 305.094 318.164 304.23 317.134 304.194C316.103 304.158 315.238 304.964 315.202 305.995Z" fill="white"/>
<path opacity="0.78" d="M693.196 343.439C693.492 342.945 693.332 342.305 692.839 342.008C692.345 341.712 691.705 341.871 691.408 342.365C691.112 342.859 691.271 343.499 691.765 343.796C692.258 344.092 692.899 343.933 693.196 343.439Z" fill="white"/>
<path opacity="0.98" d="M1044.6 278.894C1045.16 278.665 1045.44 278.021 1045.21 277.455C1044.98 276.89 1044.34 276.616 1043.77 276.845C1043.2 277.073 1042.93 277.717 1043.16 278.283C1043.39 278.849 1044.03 279.122 1044.6 278.894Z" fill="white"/>
<path opacity="0.96" d="M117.898 528.819C118.064 529.758 118.959 530.386 119.899 530.22C120.838 530.054 121.466 529.158 121.3 528.219C121.134 527.279 120.238 526.652 119.299 526.818C118.36 526.983 117.732 527.879 117.898 528.819Z" fill="white"/>
<path opacity="0.8" d="M484.329 703.61C483.626 703.409 482.894 703.815 482.692 704.517C482.491 705.219 482.897 705.952 483.599 706.153C484.302 706.354 485.034 705.948 485.236 705.246C485.437 704.544 485.031 703.811 484.329 703.61Z" fill="white"/>
<path opacity="0.83" d="M768.174 673.087C767.795 672.503 767.014 672.337 766.43 672.717C765.846 673.096 765.68 673.876 766.06 674.46C766.439 675.044 767.219 675.21 767.803 674.831C768.387 674.452 768.553 673.671 768.174 673.087Z" fill="white"/>
<path opacity="0.74" d="M195.856 61.596C194.978 61.4725 194.166 62.0844 194.042 62.9627C193.919 63.8409 194.531 64.653 195.409 64.7765C196.288 64.8999 197.1 64.288 197.223 63.4097C197.347 62.5315 196.735 61.7194 195.856 61.596Z" fill="white"/>
<path opacity="0.84" d="M540.824 21.4162C541.242 21.9145 541.985 21.9796 542.483 21.5616C542.981 21.1435 543.046 20.4006 542.628 19.9023C542.21 19.404 541.467 19.3389 540.969 19.757C540.471 20.1751 540.406 20.9179 540.824 21.4162Z" fill="white"/>
<path opacity="0.81" d="M988.865 81.419C988.418 80.8867 987.624 80.8172 987.092 81.2638C986.56 81.7104 986.491 82.5039 986.937 83.0362C987.384 83.5685 988.178 83.638 988.71 83.1914C989.242 82.7448 989.311 81.9513 988.865 81.419Z" fill="white"/>
<path opacity="0.94" d="M326.969 421.385C326.773 421.848 326.988 422.382 327.451 422.579C327.914 422.775 328.448 422.559 328.644 422.097C328.841 421.634 328.625 421.1 328.162 420.903C327.7 420.707 327.165 420.923 326.969 421.385Z" fill="white"/>
<path opacity="0.86" d="M678.857 265.276C678.528 264.839 677.907 264.752 677.47 265.081C677.033 265.41 676.946 266.031 677.275 266.468C677.604 266.905 678.225 266.992 678.662 266.663C679.099 266.334 679.186 265.713 678.857 265.276Z" fill="white"/>
<path opacity="0.86" d="M966.171 474.877C965.802 475.404 965.93 476.13 966.457 476.499C966.983 476.868 967.709 476.739 968.078 476.213C968.447 475.686 968.319 474.96 967.792 474.591C967.266 474.222 966.54 474.35 966.171 474.877Z" fill="white"/>
<path opacity="0.79" d="M194.892 642.522C194.218 642.767 193.871 643.512 194.116 644.186C194.361 644.86 195.106 645.207 195.78 644.962C196.454 644.716 196.801 643.971 196.556 643.298C196.311 642.624 195.566 642.277 194.892 642.522Z" fill="white"/>
<path opacity="0.85" d="M699.041 594.167C698.541 594.422 698.342 595.035 698.597 595.535C698.852 596.035 699.464 596.234 699.965 595.979C700.465 595.724 700.664 595.112 700.409 594.611C700.154 594.111 699.542 593.912 699.041 594.167Z" fill="white"/>
<path opacity="0.74" d="M759.086 636.503C758.679 636.758 758.555 637.295 758.81 637.702C759.064 638.109 759.601 638.233 760.008 637.979C760.416 637.724 760.54 637.187 760.285 636.78C760.031 636.372 759.494 636.249 759.086 636.503Z" fill="white"/>
<path d="M1128.27 479.012C1129.32 479.012 1130.16 478.166 1130.16 477.123C1130.16 476.079 1129.32 475.233 1128.27 475.233C1127.23 475.233 1126.38 476.079 1126.38 477.123C1126.38 478.166 1127.23 479.012 1128.27 479.012Z" fill="white"/>
<path d="M837.3 481.28C838.343 481.28 839.189 480.603 839.189 479.768C839.189 478.933 838.343 478.257 837.3 478.257C836.256 478.257 835.41 478.933 835.41 479.768C835.41 480.603 836.256 481.28 837.3 481.28Z" fill="white"/>
<path d="M765.121 479.012C765.956 479.012 766.632 478.166 766.632 477.123C766.632 476.079 765.956 475.233 765.121 475.233C764.286 475.233 763.609 476.079 763.609 477.123C763.609 478.166 764.286 479.012 765.121 479.012Z" fill="white"/>
<path d="M561.933 73.5931C562.388 73.0106 562.285 72.1695 561.703 71.7145C561.12 71.2595 560.279 71.3628 559.824 71.9453C559.369 72.5278 559.472 73.3689 560.055 73.8239C560.637 74.2789 561.478 74.1756 561.933 73.5931Z" fill="white"/>
<path opacity="0.7" d="M1084.21 322.095C1083.59 322.832 1083.69 323.932 1084.42 324.55C1085.16 325.169 1086.26 325.073 1086.88 324.335C1087.5 323.598 1087.4 322.498 1086.66 321.88C1085.93 321.261 1084.83 321.357 1084.21 322.095Z" fill="white"/>
<path opacity="0.73" d="M1789.36 5.74082C1789.45 4.86034 1788.81 4.07158 1787.93 3.97905C1787.05 3.88652 1786.26 4.52527 1786.17 5.40575C1786.08 6.28622 1786.71 7.07501 1787.59 7.16754C1788.47 7.26006 1789.26 6.62129 1789.36 5.74082Z" fill="white"/>
<path opacity="0.93" d="M352.86 643.032C352.509 642.342 351.665 642.068 350.976 642.419C350.287 642.771 350.013 643.614 350.364 644.303C350.715 644.992 351.559 645.267 352.248 644.915C352.937 644.564 353.211 643.721 352.86 643.032Z" fill="white"/>
<path opacity="0.78" d="M830.926 640.603C830.598 640.183 829.992 640.109 829.572 640.437C829.152 640.765 829.078 641.371 829.406 641.791C829.734 642.211 830.34 642.285 830.76 641.957C831.18 641.629 831.255 641.023 830.926 640.603Z" fill="white"/>
<path opacity="0.86" d="M563.362 831.911C562.366 832.141 561.744 833.135 561.974 834.131C562.204 835.128 563.199 835.749 564.195 835.519C565.192 835.289 565.814 834.295 565.583 833.298C565.353 832.302 564.359 831.68 563.362 831.911Z" fill="white"/>
<path opacity="0.9" d="M18.5772 377.757C18.1454 377.382 17.4912 377.427 17.1159 377.859C16.7406 378.291 16.7864 378.945 17.2182 379.32C17.65 379.696 18.3042 379.65 18.6795 379.218C19.0548 378.787 19.009 378.132 18.5772 377.757Z" fill="white"/>
<path opacity="0.89" d="M49.5412 342.739C49.8497 343.635 50.8259 344.111 51.7217 343.803C52.6175 343.495 53.0936 342.518 52.7851 341.622C52.4767 340.726 51.5004 340.25 50.6046 340.558C49.7088 340.867 49.2327 341.843 49.5412 342.739Z" fill="white"/>
<path d="M83.6485 93.7224C84.603 93.3173 85.0484 92.2152 84.6432 91.2608C84.2381 90.3064 83.136 89.8612 82.1814 90.2664C81.2269 90.6715 80.7815 91.7737 81.1866 92.728C81.5917 93.6824 82.6939 94.1276 83.6485 93.7224Z" fill="white"/>
<path opacity="0.95" d="M141.629 82.3413C140.925 82.2798 140.305 82.8001 140.243 83.5035C140.182 84.2069 140.702 84.827 141.406 84.8886C142.109 84.9501 142.73 84.4298 142.791 83.7264C142.853 83.023 142.332 82.4029 141.629 82.3413Z" fill="white"/>
<path opacity="0.73" d="M160.426 298.769C159.769 298.849 159.302 299.447 159.383 300.103C159.463 300.76 160.061 301.227 160.717 301.146C161.374 301.065 161.841 300.468 161.76 299.811C161.68 299.155 161.082 298.688 160.426 298.769Z" fill="white"/>
<path opacity="0.99" d="M205.71 153.145C205.253 153.586 205.24 154.314 205.681 154.77C206.122 155.227 206.85 155.239 207.306 154.798C207.763 154.357 207.775 153.63 207.335 153.173C206.894 152.717 206.166 152.704 205.71 153.145Z" fill="white"/>
<path opacity="0.88" d="M247.238 0.92877C247.098 1.72107 247.627 2.4766 248.419 2.61628C249.211 2.75596 249.967 2.22691 250.106 1.43461C250.246 0.642304 249.717 -0.113236 248.925 -0.25292C248.133 -0.392603 247.377 0.136466 247.238 0.92877Z" fill="white"/>
<path opacity="0.81" d="M272.665 319.834C271.974 320.019 271.564 320.729 271.749 321.42C271.934 322.11 272.644 322.52 273.335 322.335C274.026 322.15 274.436 321.44 274.251 320.749C274.066 320.059 273.356 319.649 272.665 319.834Z" fill="white"/>
<path d="M320.332 189.483C321.269 189.532 322.069 188.812 322.118 187.875C322.167 186.938 321.447 186.138 320.51 186.089C319.572 186.04 318.773 186.76 318.724 187.697C318.674 188.634 319.395 189.434 320.332 189.483Z" fill="white"/>
<path opacity="0.78" d="M352.488 207.555C351.777 207.075 350.811 207.263 350.331 207.974C349.852 208.686 350.039 209.651 350.751 210.131C351.462 210.611 352.428 210.423 352.908 209.712C353.388 209.001 353.2 208.035 352.488 207.555Z" fill="white"/>
<path opacity="0.86" d="M364.096 1.19691C363.9 0.593289 363.252 0.26293 362.648 0.459028C362.045 0.655126 361.714 1.30342 361.911 1.90704C362.107 2.51066 362.755 2.84103 363.358 2.64493C363.962 2.44884 364.292 1.80053 364.096 1.19691Z" fill="white"/>
<path opacity="0.99" d="M406.446 35.6997C405.932 36.0082 405.766 36.6744 406.075 37.1877C406.383 37.701 407.049 37.867 407.563 37.5585C408.076 37.2501 408.242 36.5839 407.934 36.0706C407.625 35.5573 406.959 35.3912 406.446 35.6997Z" fill="white"/>
<path opacity="0.7" d="M450.195 371.897C450.115 372.554 450.582 373.151 451.238 373.232C451.895 373.312 452.492 372.845 452.573 372.189C452.653 371.532 452.187 370.935 451.53 370.854C450.874 370.773 450.276 371.24 450.195 371.897Z" fill="white"/>
<path opacity="0.85" d="M499.753 82.398C500.151 82.9263 500.902 83.0319 501.431 82.6339C501.959 82.2358 502.064 81.4849 501.666 80.9566C501.268 80.4283 500.517 80.3227 499.989 80.7207C499.461 81.1188 499.355 81.8697 499.753 82.398Z" fill="white"/>
<path opacity="0.92" d="M534.401 163.618C533.9 162.75 532.792 162.453 531.925 162.954C531.058 163.454 530.761 164.563 531.262 165.43C531.762 166.297 532.871 166.594 533.738 166.094C534.605 165.593 534.902 164.485 534.401 163.618Z" fill="white"/>
<path opacity="0.73" d="M577.633 228.596C578.123 227.947 577.993 227.023 577.344 226.534C576.694 226.044 575.771 226.174 575.281 226.824C574.791 227.473 574.921 228.397 575.571 228.886C576.22 229.376 577.144 229.246 577.633 228.596Z" fill="white"/>
<path opacity="0.85" d="M593.582 270.318C592.654 270.693 592.205 271.749 592.58 272.678C592.955 273.606 594.012 274.054 594.94 273.679C595.869 273.304 596.317 272.248 595.942 271.319C595.567 270.391 594.511 269.943 593.582 270.318Z" fill="white"/>
<path opacity="0.79" d="M621.445 353.098C621.422 353.751 621.932 354.298 622.585 354.32C623.237 354.343 623.784 353.833 623.806 353.181C623.829 352.529 623.319 351.982 622.667 351.959C622.015 351.936 621.468 352.446 621.445 353.098Z" fill="white"/>
<path opacity="0.77" d="M669.584 318.93C668.962 318.478 668.092 318.616 667.64 319.238C667.188 319.86 667.326 320.73 667.948 321.182C668.57 321.634 669.44 321.496 669.892 320.874C670.344 320.252 670.206 319.382 669.584 318.93Z" fill="white"/>
<path opacity="0.8" d="M712.161 229.57C712.161 230.437 712.864 231.14 713.731 231.14C714.598 231.14 715.301 230.437 715.301 229.57C715.301 228.703 714.598 228 713.731 228C712.864 228 712.161 228.703 712.161 229.57Z" fill="white"/>
<path d="M740.733 60.4107C740.405 59.6372 739.512 59.2763 738.739 59.6046C737.965 59.9328 737.605 60.826 737.933 61.5995C738.261 62.373 739.154 62.7339 739.928 62.4056C740.701 62.0773 741.062 61.1842 740.733 60.4107Z" fill="white"/>
<path opacity="0.93" d="M780.905 334.42C781.456 334.654 782.093 334.397 782.327 333.846C782.561 333.294 782.303 332.658 781.752 332.424C781.201 332.19 780.564 332.447 780.33 332.998C780.096 333.549 780.354 334.186 780.905 334.42Z" fill="white"/>
<path opacity="0.99" d="M804.302 126.717C805.269 126.835 806.149 126.148 806.268 125.181C806.386 124.214 805.699 123.334 804.732 123.215C803.764 123.096 802.884 123.784 802.765 124.751C802.647 125.718 803.335 126.598 804.302 126.717Z" fill="white"/>
<path opacity="0.99" d="M864.967 106.934C864.705 106.317 863.993 106.029 863.376 106.291C862.759 106.553 862.471 107.265 862.733 107.883C862.995 108.5 863.707 108.788 864.324 108.526C864.941 108.264 865.229 107.551 864.967 106.934Z" fill="white"/>
<path opacity="0.98" d="M883.863 379.229C884.623 379.49 885.452 379.086 885.714 378.326C885.976 377.565 885.572 376.736 884.811 376.474C884.05 376.212 883.221 376.617 882.959 377.377C882.698 378.138 883.102 378.967 883.863 379.229Z" fill="white"/>
<path opacity="0.89" d="M930.801 156.932C931.354 156.893 931.771 156.414 931.732 155.861C931.694 155.308 931.214 154.891 930.661 154.93C930.108 154.969 929.691 155.448 929.73 156.001C929.769 156.554 930.248 156.971 930.801 156.932Z" fill="white"/>
<path opacity="0.86" d="M960.518 371.029C959.6 371.224 959.014 372.127 959.209 373.045C959.404 373.963 960.306 374.549 961.224 374.353C962.142 374.158 962.729 373.256 962.533 372.338C962.338 371.42 961.436 370.834 960.518 371.029Z" fill="white"/>
<path opacity="0.81" d="M1005.47 106.911C1005.27 106.16 1004.5 105.714 1003.74 105.915C1002.99 106.116 1002.55 106.889 1002.75 107.64C1002.95 108.391 1003.72 108.837 1004.47 108.636C1005.22 108.434 1005.67 107.662 1005.47 106.911Z" fill="white"/>
<path opacity="0.86" d="M1039.14 257.41C1038.65 258.053 1038.78 258.966 1039.42 259.45C1040.07 259.934 1040.98 259.806 1041.46 259.163C1041.95 258.521 1041.82 257.608 1041.18 257.123C1040.53 256.639 1039.62 256.768 1039.14 257.41Z" fill="white"/>
<path opacity="0.88" d="M1062 303.981C1061.71 304.546 1061.93 305.238 1062.5 305.526C1063.06 305.814 1063.76 305.589 1064.04 305.024C1064.33 304.458 1064.11 303.766 1063.54 303.478C1062.98 303.19 1062.29 303.415 1062 303.981Z" fill="white"/>
<path opacity="0.71" d="M1122.35 220.686C1123.22 220.97 1124.16 220.491 1124.45 219.616C1124.73 218.74 1124.25 217.8 1123.38 217.515C1122.5 217.231 1121.56 217.71 1121.28 218.585C1120.99 219.461 1121.47 220.401 1122.35 220.686Z" fill="white"/>
<path opacity="0.83" d="M1152.43 15.3514C1151.45 15.2999 1150.61 16.0541 1150.56 17.0359C1150.51 18.0177 1151.26 18.8554 1152.24 18.9068C1153.22 18.9583 1154.06 18.2041 1154.11 17.2223C1154.16 16.2405 1153.41 15.4028 1152.43 15.3514Z" fill="white"/>
<path opacity="0.78" d="M1158.31 312.668C1157.7 313.169 1157.6 314.076 1158.1 314.694C1158.6 315.312 1159.51 315.407 1160.13 314.907C1160.74 314.406 1160.84 313.499 1160.34 312.881C1159.84 312.262 1158.93 312.167 1158.31 312.668Z" fill="white"/>
<path opacity="0.72" d="M1228.44 71.631C1228.25 70.7129 1227.35 70.1268 1226.43 70.3219C1225.51 70.5171 1224.92 71.4195 1225.12 72.3376C1225.31 73.2557 1226.22 73.8418 1227.13 73.6467C1228.05 73.4516 1228.64 72.5491 1228.44 71.631Z" fill="white"/>
<path opacity="0.83" d="M1248.81 136.944C1248.04 137.355 1247.74 138.316 1248.15 139.089C1248.56 139.862 1249.53 140.156 1250.3 139.745C1251.07 139.333 1251.37 138.373 1250.95 137.6C1250.54 136.826 1249.58 136.533 1248.81 136.944Z" fill="white"/>
<path opacity="0.85" d="M1286.43 325.246C1286.43 325.935 1286.99 326.493 1287.68 326.493C1288.37 326.493 1288.93 325.935 1288.93 325.246C1288.93 324.558 1288.37 324 1287.68 324C1286.99 324 1286.43 324.558 1286.43 325.246Z" fill="white"/>
<path d="M1308.37 280.921C1309.04 281.748 1310.25 281.875 1311.08 281.206C1311.91 280.536 1312.03 279.324 1311.36 278.497C1310.7 277.67 1309.48 277.543 1308.66 278.212C1307.83 278.881 1307.7 280.094 1308.37 280.921Z" fill="white"/>
<path opacity="0.87" d="M1344.68 96.3884C1345.02 97.0277 1345.81 97.2705 1346.45 96.9306C1347.09 96.5907 1347.33 95.7969 1346.99 95.1576C1346.65 94.5183 1345.86 94.2755 1345.22 94.6154C1344.58 94.9553 1344.34 95.7491 1344.68 96.3884Z" fill="white"/>
<path opacity="0.88" d="M1397.52 311.886C1396.83 312.112 1396.44 312.861 1396.67 313.558C1396.9 314.255 1397.65 314.637 1398.34 314.41C1399.04 314.184 1399.42 313.435 1399.2 312.738C1398.97 312.041 1398.22 311.659 1397.52 311.886Z" fill="white"/>
<path opacity="0.96" d="M1412.17 244.883C1411.96 245.789 1412.53 246.693 1413.43 246.902C1414.34 247.111 1415.24 246.546 1415.45 245.64C1415.66 244.734 1415.1 243.83 1414.19 243.621C1413.29 243.412 1412.38 243.977 1412.17 244.883Z" fill="white"/>
<path opacity="0.73" d="M1452.06 249.176C1452.65 249.748 1453.59 249.731 1454.16 249.14C1454.73 248.548 1454.72 247.606 1454.13 247.034C1453.53 246.463 1452.59 246.48 1452.02 247.071C1451.45 247.663 1451.47 248.605 1452.06 249.176Z" fill="white"/>
<path opacity="0.77" d="M1522.9 330.342C1523.27 329.801 1523.12 329.066 1522.58 328.701C1522.04 328.337 1521.31 328.479 1520.94 329.02C1520.58 329.561 1520.72 330.296 1521.26 330.661C1521.8 331.025 1522.54 330.883 1522.9 330.342Z" fill="white"/>
<path opacity="0.75" d="M1550.75 344.413C1551.09 343.963 1551 343.324 1550.55 342.985C1550.1 342.646 1549.46 342.736 1549.12 343.186C1548.78 343.635 1548.87 344.275 1549.32 344.614C1549.77 344.952 1550.41 344.863 1550.75 344.413Z" fill="white"/>
<path opacity="0.78" d="M1573.22 5.24218C1574.21 5.60296 1575.31 5.09201 1575.67 4.10095C1576.03 3.10989 1575.52 2.01401 1574.53 1.65324C1573.54 1.29247 1572.44 1.80341 1572.08 2.79447C1571.72 3.78554 1572.23 4.88141 1573.22 5.24218Z" fill="white"/>
<path opacity="0.93" d="M1625.73 381.112C1625.06 380.292 1623.86 380.166 1623.04 380.83C1622.22 381.493 1622.1 382.696 1622.76 383.516C1623.42 384.335 1624.63 384.462 1625.45 383.798C1626.26 383.135 1626.39 381.932 1625.73 381.112Z" fill="white"/>
<path d="M1639.95 37.0307C1640.6 37.4175 1641.43 37.2093 1641.82 36.5657C1642.2 35.9222 1642 35.087 1641.35 34.7003C1640.71 34.3135 1639.87 34.5217 1639.49 35.1652C1639.1 35.8088 1639.31 36.644 1639.95 37.0307Z" fill="white"/>
<path opacity="0.87" d="M1692.41 284.013C1691.86 283.463 1690.97 283.463 1690.42 284.013C1689.87 284.563 1689.87 285.454 1690.42 286.004C1690.97 286.554 1691.86 286.554 1692.41 286.004C1692.96 285.455 1692.96 284.563 1692.41 284.013Z" fill="white"/>
<path opacity="0.9" d="M1724.88 286.263C1725.4 285.908 1725.54 285.193 1725.19 284.667C1724.83 284.141 1724.12 284.002 1723.59 284.357C1723.07 284.712 1722.93 285.426 1723.28 285.953C1723.64 286.479 1724.35 286.617 1724.88 286.263Z" fill="white"/>
<path opacity="0.87" d="M1768.57 332.594C1768.45 332.063 1767.92 331.731 1767.38 331.854C1766.85 331.977 1766.52 332.507 1766.65 333.038C1766.77 333.569 1767.3 333.901 1767.83 333.778C1768.36 333.655 1768.69 333.125 1768.57 332.594Z" fill="white"/>
<path opacity="0.99" d="M1798.53 96.3583C1798.99 96.7433 1799.67 96.6835 1800.06 96.2248C1800.44 95.766 1800.38 95.0821 1799.92 94.6971C1799.47 94.3121 1798.78 94.3719 1798.4 94.8306C1798.01 95.2893 1798.07 95.9733 1798.53 96.3583Z" fill="white"/>
<path opacity="0.88" d="M1818.03 285.098C1818.68 285.506 1819.54 285.307 1819.94 284.656C1820.35 284.004 1820.15 283.145 1819.5 282.738C1818.85 282.33 1817.99 282.528 1817.58 283.18C1817.18 283.832 1817.37 284.691 1818.03 285.098Z" fill="white"/>
<path opacity="0.97" d="M1863.4 325.425C1862.93 324.951 1862.16 324.951 1861.69 325.425C1861.21 325.899 1861.21 326.668 1861.69 327.142C1862.16 327.616 1862.93 327.616 1863.41 327.142C1863.88 326.668 1863.88 325.899 1863.4 325.425Z" fill="white"/>
<path opacity="0.9" d="M1915.46 129.962C1915.65 131.515 1916.38 132.46 1917.11 132.073C1917.84 131.686 1918.28 130.113 1918.1 128.56C1917.92 127.007 1917.18 126.062 1916.45 126.449C1915.73 126.837 1915.28 128.409 1915.46 129.962Z" fill="white"/>
<path opacity="0.77" d="M-0.78959 706.28C-1.59963 706.093 -2.40787 706.598 -2.59485 707.408C-2.78183 708.217 -2.27675 709.026 -1.46672 709.213C-0.65668 709.4 0.15158 708.895 0.338564 708.085C0.525547 707.275 0.020447 706.467 -0.78959 706.28Z" fill="white"/>
<path opacity="0.95" d="M33.6343 550.207C33.7137 550.963 34.3906 551.511 35.1461 551.432C35.9017 551.352 36.4498 550.675 36.3704 549.92C36.2909 549.164 35.6141 548.616 34.8585 548.695C34.103 548.774 33.5548 549.451 33.6343 550.207Z" fill="white"/>
<path opacity="0.71" d="M108.438 554.906C107.963 554.396 107.164 554.368 106.654 554.844C106.144 555.319 106.117 556.118 106.592 556.628C107.068 557.138 107.866 557.166 108.376 556.69C108.886 556.215 108.914 555.416 108.438 554.906Z" fill="white"/>
<path opacity="0.7" d="M138.699 398.188C138.842 398.806 139.459 399.192 140.077 399.049C140.695 398.906 141.081 398.289 140.938 397.671C140.795 397.053 140.178 396.667 139.56 396.81C138.942 396.952 138.556 397.57 138.699 398.188Z" fill="white"/>
<path d="M172.79 441.805C172.392 442.19 172.381 442.825 172.765 443.224C173.15 443.622 173.786 443.633 174.184 443.248C174.583 442.863 174.594 442.228 174.209 441.83C173.824 441.431 173.189 441.42 172.79 441.805Z" fill="white"/>
<path opacity="0.91" d="M181.274 452.857C181.688 453.302 182.385 453.326 182.829 452.912C183.274 452.497 183.298 451.801 182.883 451.356C182.469 450.912 181.772 450.887 181.328 451.302C180.883 451.716 180.859 452.413 181.274 452.857Z" fill="white"/>
<path opacity="0.96" d="M249.968 546.581C250.263 547.113 250.933 547.305 251.464 547.01C251.996 546.715 252.188 546.046 251.893 545.514C251.598 544.982 250.928 544.79 250.397 545.085C249.865 545.379 249.673 546.049 249.968 546.581Z" fill="white"/>
<path opacity="0.8" d="M283.136 653.468C283.62 654.11 284.534 654.239 285.176 653.755C285.819 653.271 285.947 652.357 285.463 651.715C284.978 651.072 284.065 650.944 283.423 651.428C282.78 651.912 282.652 652.825 283.136 653.468Z" fill="white"/>
<path opacity="0.85" d="M310.464 598.08C309.548 598.547 309.184 599.667 309.651 600.583C310.117 601.499 311.238 601.863 312.154 601.396C313.07 600.93 313.434 599.809 312.968 598.893C312.501 597.977 311.38 597.613 310.464 598.08Z" fill="white"/>
<path opacity="0.74" d="M326.166 533.955C325.606 534.193 325.345 534.839 325.583 535.398C325.82 535.958 326.466 536.219 327.026 535.981C327.585 535.744 327.847 535.098 327.609 534.538C327.372 533.979 326.725 533.718 326.166 533.955Z" fill="white"/>
<path opacity="0.78" d="M371.409 630.309C370.819 629.698 369.846 629.681 369.235 630.271C368.624 630.861 368.608 631.834 369.197 632.445C369.787 633.056 370.761 633.073 371.372 632.483C371.982 631.893 371.999 630.92 371.409 630.309Z" fill="white"/>
<path opacity="0.96" d="M409.531 428.515C408.754 428.392 408.024 428.922 407.901 429.699C407.778 430.476 408.308 431.205 409.085 431.328C409.862 431.452 410.592 430.922 410.715 430.145C410.838 429.368 410.308 428.638 409.531 428.515Z" fill="white"/>
<path opacity="0.87" d="M453.067 416.016C453.208 416.543 453.75 416.855 454.276 416.714C454.803 416.573 455.115 416.032 454.974 415.505C454.833 414.978 454.292 414.666 453.765 414.807C453.239 414.948 452.926 415.489 453.067 416.016Z" fill="white"/>
<path opacity="0.94" d="M482.339 410.164C482.96 410.365 483.626 410.026 483.828 409.405C484.029 408.785 483.69 408.118 483.069 407.916C482.448 407.715 481.782 408.054 481.58 408.675C481.379 409.295 481.718 409.962 482.339 410.164Z" fill="white"/>
<path opacity="0.9" d="M514.197 490.509C515.185 490.719 516.156 490.088 516.366 489.101C516.576 488.113 515.945 487.142 514.957 486.932C513.969 486.722 512.998 487.352 512.788 488.34C512.578 489.328 513.209 490.299 514.197 490.509Z" fill="white"/>
<path opacity="0.77" d="M544.096 532.884C543.584 533.539 543.7 534.485 544.355 534.997C545.01 535.509 545.956 535.393 546.468 534.737C546.98 534.082 546.864 533.136 546.209 532.625C545.554 532.113 544.608 532.229 544.096 532.884Z" fill="white"/>
<path opacity="0.99" d="M610.039 652.847C609.266 652.346 608.234 652.565 607.733 653.337C607.231 654.109 607.451 655.142 608.223 655.643C608.995 656.145 610.028 655.925 610.529 655.153C611.03 654.381 610.811 653.349 610.039 652.847Z" fill="white"/>
<path opacity="0.79" d="M651.913 639.094C651.487 638.587 650.732 638.521 650.225 638.946C649.719 639.372 649.653 640.127 650.078 640.634C650.503 641.14 651.258 641.207 651.765 640.781C652.272 640.356 652.338 639.601 651.913 639.094Z" fill="white"/>
<path opacity="0.79" d="M677.359 725.166C678.3 725.281 679.156 724.612 679.271 723.672C679.386 722.732 678.718 721.876 677.777 721.76C676.837 721.645 675.981 722.314 675.865 723.254C675.75 724.194 676.419 725.05 677.359 725.166Z" fill="white"/>
<path opacity="0.77" d="M705.23 568.28C705.714 568.818 706.543 568.861 707.081 568.377C707.619 567.893 707.663 567.064 707.178 566.526C706.694 565.987 705.865 565.944 705.327 566.428C704.789 566.913 704.745 567.742 705.23 568.28Z" fill="white"/>
<path opacity="0.7" d="M731.647 404.545C732.432 405.18 733.584 405.059 734.219 404.275C734.855 403.49 734.734 402.338 733.949 401.702C733.164 401.067 732.012 401.188 731.376 401.972C730.741 402.757 730.862 403.909 731.647 404.545Z" fill="white"/>
<path opacity="0.7" d="M773.858 681.615C774.657 682.262 775.829 682.139 776.476 681.34C777.123 680.542 776.999 679.37 776.2 678.723C775.402 678.076 774.23 678.199 773.583 678.998C772.936 679.796 773.059 680.968 773.858 681.615Z" fill="white"/>
<path opacity="0.82" d="M802.293 743.843C801.618 744.249 801.4 745.124 801.805 745.798C802.21 746.472 803.085 746.69 803.76 746.285C804.434 745.88 804.652 745.005 804.247 744.331C803.842 743.656 802.967 743.438 802.293 743.843Z" fill="white"/>
<path opacity="0.98" d="M850.126 688.278C850.167 687.492 849.564 686.822 848.778 686.781C847.993 686.74 847.323 687.343 847.282 688.129C847.24 688.914 847.844 689.585 848.629 689.626C849.415 689.667 850.085 689.063 850.126 688.278Z" fill="white"/>
<path opacity="0.8" d="M890.106 685.642C889.758 686.388 890.08 687.274 890.826 687.621C891.571 687.969 892.457 687.646 892.804 686.901C893.152 686.156 892.829 685.27 892.084 684.922C891.339 684.575 890.453 684.897 890.106 685.642Z" fill="white"/>
<path opacity="0.73" d="M919.928 552.543C919.846 551.599 919.014 550.901 918.07 550.983C917.126 551.066 916.428 551.898 916.511 552.842C916.593 553.786 917.425 554.484 918.369 554.402C919.313 554.319 920.011 553.487 919.928 552.543Z" fill="white"/>
<path opacity="0.77" d="M947.977 441.934C947.188 441.514 946.208 441.813 945.788 442.603C945.369 443.392 945.668 444.372 946.458 444.791C947.247 445.211 948.227 444.912 948.646 444.122C949.066 443.333 948.766 442.353 947.977 441.934Z" fill="white"/>
<path opacity="0.96" d="M1006.96 483.969C1007.59 483.495 1007.72 482.602 1007.25 481.974C1006.77 481.346 1005.88 481.221 1005.25 481.694C1004.62 482.167 1004.5 483.06 1004.97 483.689C1005.44 484.317 1006.34 484.442 1006.96 483.969Z" fill="white"/>
<path opacity="0.83" d="M1038.6 498.669C1039.53 499.067 1040.62 498.629 1041.02 497.691C1041.41 496.754 1040.98 495.67 1040.04 495.272C1039.1 494.874 1038.02 495.312 1037.62 496.25C1037.22 497.187 1037.66 498.271 1038.6 498.669Z" fill="white"/>
<path opacity="0.97" d="M1066.67 512.812C1066.74 513.371 1067.24 513.768 1067.8 513.7C1068.36 513.631 1068.76 513.122 1068.69 512.563C1068.62 512.004 1068.11 511.607 1067.55 511.676C1067 511.744 1066.6 512.253 1066.67 512.812Z" fill="white"/>
<path opacity="0.72" d="M1092.67 769.057C1093.21 768.256 1093 767.17 1092.2 766.63C1091.4 766.09 1090.31 766.302 1089.77 767.102C1089.23 767.902 1089.44 768.989 1090.24 769.529C1091.04 770.068 1092.13 769.857 1092.67 769.057Z" fill="white"/>
<path opacity="0.72" d="M1154.93 477.821C1153.98 478.203 1153.53 479.278 1153.91 480.223C1154.29 481.168 1155.36 481.624 1156.31 481.242C1157.25 480.861 1157.71 479.785 1157.33 478.841C1156.95 477.896 1155.87 477.44 1154.93 477.821Z" fill="white"/>
<path opacity="0.89" d="M1170.76 409.404C1170.34 409.054 1169.72 409.108 1169.37 409.526C1169.02 409.943 1169.07 410.566 1169.49 410.917C1169.91 411.267 1170.53 411.213 1170.88 410.795C1171.23 410.377 1171.18 409.755 1170.76 409.404Z" fill="white"/>
<path opacity="0.97" d="M1201.44 737.048C1200.66 737.773 1200.62 738.992 1201.34 739.77C1202.07 740.548 1203.29 740.59 1204.06 739.865C1204.84 739.139 1204.88 737.921 1204.16 737.143C1203.43 736.365 1202.22 736.322 1201.44 737.048Z" fill="white"/>
<path opacity="0.79" d="M1240.28 604.649C1239.48 604.091 1238.38 604.284 1237.82 605.082C1237.26 605.88 1237.46 606.98 1238.25 607.539C1239.05 608.098 1240.15 607.904 1240.71 607.106C1241.27 606.308 1241.08 605.208 1240.28 604.649Z" fill="white"/>
<path opacity="0.73" d="M1295.68 547.83C1295.16 547.364 1294.36 547.406 1293.89 547.924C1293.43 548.442 1293.47 549.24 1293.99 549.706C1294.51 550.173 1295.3 550.131 1295.77 549.613C1296.24 549.095 1296.2 548.297 1295.68 547.83Z" fill="white"/>
<path opacity="0.89" d="M1301.72 443.443C1301.54 444.3 1302.08 445.143 1302.94 445.325C1303.8 445.507 1304.64 444.96 1304.82 444.103C1305 443.246 1304.46 442.404 1303.6 442.222C1302.74 442.039 1301.9 442.586 1301.72 443.443Z" fill="white"/>
<path opacity="0.92" d="M1349.84 712.163C1349.14 712.791 1349.09 713.865 1349.72 714.563C1350.34 715.26 1351.42 715.317 1352.12 714.688C1352.81 714.06 1352.87 712.986 1352.24 712.288C1351.61 711.591 1350.54 711.535 1349.84 712.163Z" fill="white"/>
<path opacity="0.84" d="M1382.4 729.283C1382.1 728.635 1381.33 728.355 1380.68 728.657C1380.04 728.959 1379.76 729.73 1380.06 730.378C1380.36 731.026 1381.13 731.306 1381.78 731.004C1382.43 730.702 1382.71 729.932 1382.4 729.283Z" fill="white"/>
<path opacity="0.83" d="M1431.74 663.934C1432.37 663.445 1432.48 662.539 1431.99 661.912C1431.5 661.286 1430.59 661.175 1429.97 661.664C1429.34 662.154 1429.23 663.059 1429.72 663.686C1430.21 664.313 1431.11 664.424 1431.74 663.934Z" fill="white"/>
<path opacity="0.74" d="M1475.52 620.654C1475.37 619.899 1474.64 619.406 1473.89 619.553C1473.14 619.7 1472.64 620.43 1472.79 621.185C1472.94 621.939 1473.67 622.432 1474.42 622.286C1475.18 622.139 1475.67 621.408 1475.52 620.654Z" fill="white"/>
<path opacity="0.83" d="M1495.56 415.745C1494.75 415.816 1494.15 416.531 1494.22 417.341C1494.29 418.151 1495 418.751 1495.81 418.68C1496.62 418.609 1497.22 417.894 1497.15 417.084C1497.08 416.274 1496.37 415.675 1495.56 415.745Z" fill="white"/>
<path opacity="0.93" d="M1552.53 712.017C1552.64 712.616 1553.21 713.016 1553.81 712.91C1554.4 712.805 1554.8 712.234 1554.7 711.635C1554.59 711.037 1554.02 710.637 1553.42 710.742C1552.83 710.848 1552.43 711.419 1552.53 712.017Z" fill="white"/>
<path opacity="0.91" d="M1573.26 502.386C1573.06 501.588 1572.26 501.102 1571.46 501.301C1570.66 501.5 1570.18 502.308 1570.37 503.106C1570.57 503.904 1571.38 504.39 1572.18 504.191C1572.98 503.992 1573.46 503.184 1573.26 502.386Z" fill="white"/>
<path opacity="0.88" d="M1620.77 424.134C1620.21 423.91 1619.58 424.178 1619.36 424.733C1619.13 425.289 1619.4 425.921 1619.96 426.145C1620.51 426.369 1621.14 426.101 1621.37 425.546C1621.59 424.991 1621.32 424.359 1620.77 424.134Z" fill="white"/>
<path opacity="0.83" d="M1644.01 526.351C1643.51 526.147 1642.93 526.391 1642.73 526.896C1642.52 527.402 1642.77 527.977 1643.27 528.181C1643.78 528.386 1644.35 528.141 1644.56 527.636C1644.76 527.13 1644.52 526.555 1644.01 526.351Z" fill="white"/>
<path opacity="0.77" d="M1684.37 487.571C1684.37 488.134 1684.83 488.591 1685.39 488.591C1685.96 488.591 1686.41 488.134 1686.41 487.571C1686.41 487.008 1685.96 486.551 1685.39 486.551C1684.83 486.551 1684.37 487.008 1684.37 487.571Z" fill="white"/>
<path opacity="0.97" d="M1735.17 693.23C1735.93 692.635 1736.07 691.537 1735.47 690.776C1734.88 690.015 1733.78 689.881 1733.02 690.475C1732.26 691.069 1732.12 692.168 1732.72 692.929C1733.31 693.689 1734.41 693.824 1735.17 693.23Z" fill="white"/>
<path opacity="0.98" d="M1774.73 534.976C1775.14 534.39 1775 533.583 1774.41 533.172C1773.83 532.762 1773.02 532.905 1772.61 533.491C1772.2 534.076 1772.34 534.884 1772.93 535.294C1773.51 535.704 1774.32 535.562 1774.73 534.976Z" fill="white"/>
<path opacity="0.83" d="M1791.87 568.013C1792.72 568.225 1793.58 567.708 1793.79 566.858C1794 566.008 1793.48 565.147 1792.63 564.935C1791.78 564.723 1790.92 565.24 1790.71 566.09C1790.5 566.94 1791.02 567.801 1791.87 568.013Z" fill="white"/>
<path d="M1818.94 603.683C1818.48 603.009 1817.57 602.831 1816.89 603.286C1816.22 603.74 1816.04 604.656 1816.5 605.33C1816.95 606.005 1817.87 606.183 1818.54 605.728C1819.22 605.273 1819.39 604.358 1818.94 603.683Z" fill="white"/>
<path opacity="0.85" d="M1854.48 523.524C1854.8 523.978 1855.42 524.089 1855.88 523.771C1856.33 523.453 1856.44 522.827 1856.12 522.373C1855.8 521.919 1855.18 521.809 1854.72 522.127C1854.27 522.445 1854.16 523.07 1854.48 523.524Z" fill="white"/>
<path opacity="0.75" d="M1898.91 566.741C1899.3 567.173 1899.97 567.208 1900.4 566.819C1900.83 566.43 1900.87 565.765 1900.48 565.333C1900.09 564.901 1899.42 564.866 1898.99 565.255C1898.56 565.644 1898.53 566.309 1898.91 566.741Z" fill="white"/>
<path opacity="0.78" d="M26.0076 972.185C26.0267 971.64 25.6004 971.183 25.0555 971.164C24.5106 971.144 24.0535 971.571 24.0345 972.116C24.0154 972.661 24.4417 973.118 24.9866 973.137C25.5315 973.156 25.9886 972.73 26.0076 972.185Z" fill="white"/>
<path opacity="0.78" d="M69.3237 904.509C69.9767 903.981 70.0775 903.023 69.5487 902.37C69.02 901.717 68.062 901.616 67.409 902.145C66.756 902.674 66.6552 903.632 67.1839 904.285C67.7126 904.938 68.6706 905.038 69.3237 904.509Z" fill="white"/>
<path opacity="0.89" d="M126.72 871.78C127.095 870.851 126.647 869.795 125.718 869.42C124.79 869.045 123.734 869.493 123.359 870.422C122.984 871.35 123.432 872.407 124.36 872.782C125.288 873.157 126.345 872.708 126.72 871.78Z" fill="white"/>
<path opacity="0.86" d="M173.014 801.514C172.454 800.652 171.302 800.407 170.44 800.967C169.578 801.527 169.333 802.679 169.892 803.541C170.452 804.404 171.605 804.649 172.467 804.089C173.329 803.529 173.574 802.376 173.014 801.514Z" fill="white"/>
<path opacity="0.94" d="M217.019 903.369C216.267 903.915 216.1 904.968 216.646 905.72C217.193 906.472 218.245 906.638 218.998 906.092C219.75 905.546 219.916 904.493 219.37 903.741C218.824 902.989 217.771 902.822 217.019 903.369Z" fill="white"/>
<path opacity="0.75" d="M274.437 986.342C274.473 985.297 273.656 984.42 272.61 984.383C271.565 984.347 270.689 985.165 270.652 986.21C270.616 987.255 271.433 988.132 272.478 988.169C273.523 988.205 274.4 987.387 274.437 986.342Z" fill="white"/>
<path opacity="0.95" d="M380.291 918.186C381.085 918.852 382.269 918.749 382.936 917.954C383.602 917.16 383.498 915.976 382.704 915.309C381.91 914.643 380.725 914.746 380.059 915.541C379.393 916.335 379.496 917.519 380.291 918.186Z" fill="white"/>
<path opacity="0.89" d="M445.945 991.961C445.829 991.012 444.965 990.337 444.015 990.454C443.066 990.57 442.391 991.434 442.508 992.384C442.624 993.333 443.488 994.008 444.437 993.892C445.387 993.775 446.062 992.911 445.945 991.961Z" fill="white"/>
<path opacity="0.75" d="M472.487 900.774C472.032 901.501 472.253 902.46 472.981 902.915C473.709 903.369 474.667 903.148 475.122 902.42C475.577 901.693 475.355 900.734 474.628 900.279C473.9 899.825 472.942 900.046 472.487 900.774Z" fill="white"/>
<path opacity="0.98" d="M504.705 987.704C505.008 988.536 505.927 988.965 506.759 988.662C507.59 988.359 508.019 987.44 507.716 986.608C507.413 985.777 506.494 985.348 505.662 985.651C504.831 985.953 504.402 986.873 504.705 987.704Z" fill="white"/>
<path opacity="0.94" d="M577.509 867.189C577.43 866.29 576.637 865.624 575.738 865.703C574.839 865.782 574.173 866.575 574.252 867.474C574.331 868.373 575.124 869.039 576.023 868.96C576.922 868.881 577.587 868.088 577.509 867.189Z" fill="white"/>
<path opacity="0.93" d="M580.492 979.259C580.623 980.188 581.482 980.836 582.411 980.705C583.341 980.574 583.988 979.715 583.858 978.786C583.727 977.856 582.868 977.208 581.938 977.339C581.009 977.47 580.362 978.329 580.492 979.259Z" fill="white"/>
<path opacity="0.99" d="M629 846.498C628.773 845.513 627.791 844.9 626.807 845.127C625.823 845.354 625.209 846.336 625.436 847.32C625.663 848.305 626.645 848.918 627.63 848.691C628.614 848.464 629.227 847.482 629 846.498Z" fill="white"/>
<path opacity="0.85" d="M696.554 934.659C695.821 934.775 695.321 935.463 695.437 936.196C695.553 936.929 696.241 937.429 696.974 937.313C697.707 937.197 698.207 936.509 698.091 935.776C697.975 935.043 697.286 934.543 696.554 934.659Z" fill="white"/>
<path opacity="0.99" d="M882.345 786.283C881.933 786.654 881.9 787.288 882.271 787.7C882.641 788.112 883.276 788.145 883.688 787.774C884.1 787.403 884.133 786.769 883.762 786.357C883.391 785.945 882.757 785.912 882.345 786.283Z" fill="white"/>
<path d="M1088.68 927.407C1088.65 926.531 1087.92 925.846 1087.04 925.877C1086.17 925.907 1085.48 926.642 1085.51 927.517C1085.54 928.393 1086.28 929.078 1087.15 929.047C1088.03 929.017 1088.71 928.282 1088.68 927.407Z" fill="white"/>
<path opacity="0.97" d="M1155.07 927.914C1154.6 928.212 1154.45 928.841 1154.75 929.319C1155.05 929.796 1155.68 929.941 1156.15 929.643C1156.63 929.344 1156.78 928.715 1156.48 928.238C1156.18 927.76 1155.55 927.615 1155.07 927.914Z" fill="white"/>
<path opacity="0.75" d="M1185.46 919.43C1185.78 920.081 1186.57 920.351 1187.22 920.034C1187.87 919.717 1188.14 918.932 1187.82 918.281C1187.5 917.63 1186.72 917.36 1186.07 917.677C1185.42 917.995 1185.15 918.779 1185.46 919.43Z" fill="white"/>
<path opacity="0.77" d="M1226.09 964.719C1225.63 964.321 1224.93 964.369 1224.53 964.828C1224.13 965.287 1224.18 965.982 1224.64 966.38C1225.1 966.779 1225.8 966.731 1226.19 966.272C1226.59 965.813 1226.54 965.118 1226.09 964.719Z" fill="white"/>
<path opacity="0.77" d="M1241.94 998.315C1241.13 998.948 1240.99 1000.12 1241.62 1000.93C1242.25 1001.74 1243.42 1001.88 1244.23 1001.25C1245.04 1000.62 1245.19 999.446 1244.55 998.636C1243.92 997.826 1242.75 997.683 1241.94 998.315Z" fill="white"/>
<path opacity="0.91" d="M1283.95 828.688C1283.75 827.753 1282.83 827.156 1281.9 827.354C1280.96 827.553 1280.37 828.473 1280.57 829.408C1280.76 830.344 1281.68 830.941 1282.62 830.743C1283.56 830.544 1284.15 829.624 1283.95 828.688Z" fill="white"/>
<path opacity="0.92" d="M1368.42 817.57C1368.97 818.385 1370.08 818.6 1370.89 818.05C1371.71 817.5 1371.92 816.394 1371.37 815.579C1370.82 814.763 1369.72 814.548 1368.9 815.098C1368.09 815.648 1367.87 816.754 1368.42 817.57Z" fill="white"/>
<path opacity="0.95" d="M1427.37 870.531C1426.64 871.122 1426.53 872.192 1427.12 872.921C1427.71 873.65 1428.78 873.763 1429.51 873.172C1430.24 872.581 1430.35 871.511 1429.76 870.782C1429.17 870.053 1428.1 869.94 1427.37 870.531Z" fill="white"/>
<path opacity="0.8" d="M1550.22 830.806C1550.57 829.952 1550.16 828.98 1549.3 828.635C1548.45 828.291 1547.48 828.703 1547.13 829.557C1546.79 830.41 1547.2 831.382 1548.05 831.727C1548.91 832.072 1549.88 831.659 1550.22 830.806Z" fill="white"/>
<path opacity="0.97" d="M1565.73 809.628C1566.73 809.575 1567.5 808.723 1567.45 807.723C1567.4 806.723 1566.54 805.955 1565.54 806.008C1564.54 806.06 1563.78 806.913 1563.83 807.913C1563.88 808.912 1564.73 809.68 1565.73 809.628Z" fill="white"/>
<path opacity="0.98" d="M1679.34 997.711C1679.69 998.456 1680.58 998.778 1681.32 998.431C1682.07 998.083 1682.39 997.197 1682.04 996.452C1681.7 995.707 1680.81 995.384 1680.06 995.732C1679.32 996.079 1679 996.965 1679.34 997.711Z" fill="white"/>
<path opacity="0.92" d="M1791.38 979.212C1791.22 978.498 1790.5 978.053 1789.79 978.218C1789.08 978.382 1788.63 979.095 1788.8 979.809C1788.96 980.524 1789.67 980.969 1790.39 980.804C1791.1 980.639 1791.55 979.926 1791.38 979.212Z" fill="white"/>
<path opacity="0.86" d="M1828.07 994.975C1828.78 995.127 1829.49 994.669 1829.64 993.952C1829.79 993.236 1829.34 992.531 1828.62 992.378C1827.9 992.226 1827.2 992.684 1827.04 993.401C1826.89 994.117 1827.35 994.822 1828.07 994.975Z" fill="white"/>
<path opacity="0.82" d="M1870.48 982.227C1870.83 981.594 1870.6 980.796 1869.96 980.445C1869.33 980.094 1868.53 980.323 1868.18 980.956C1867.83 981.589 1868.06 982.387 1868.69 982.738C1869.33 983.089 1870.12 982.86 1870.48 982.227Z" fill="white"/>
<path opacity="0.77" d="M1916.78 990.806C1917.6 990.661 1918.14 989.881 1918 989.062C1917.86 988.243 1917.07 987.697 1916.26 987.841C1915.44 987.986 1914.89 988.766 1915.03 989.585C1915.18 990.403 1915.96 990.95 1916.78 990.806Z" fill="white"/>
</svg>
