<svg width="25" height="27" viewBox="0 0 25 27" fill="none" xmlns="http://www.w3.org/2000/svg">
<path d="M21.3476 4.33158C20.1963 3.12855 18.8252 2.17479 17.3143 1.52587C15.8034 0.876944 14.1828 0.545836 12.5471 0.551838C5.6928 0.551838 0.10673 6.33357 0.100452 13.4315C0.100452 15.7049 0.674912 17.9165 1.75948 19.8747L0 26.5518L6.59844 24.761C8.42385 25.7895 10.4689 26.3286 12.5471 26.3291H12.5534C19.4092 26.3291 24.9937 20.5474 25 13.4429C25.0016 11.7497 24.6795 10.073 24.0524 8.50924C23.4253 6.94549 22.5055 5.52567 21.3461 4.33158H21.3476ZM12.5471 24.1484C10.6934 24.149 8.87384 23.6326 7.27963 22.6534L6.90294 22.4194L2.98845 23.4821L4.03378 19.5285L3.78892 19.1207C2.75271 17.4149 2.20468 15.4401 2.20837 13.425C2.20837 7.53282 6.84957 2.72608 12.5534 2.72608C13.9122 2.72356 15.2581 2.99953 16.5134 3.53808C17.7687 4.07663 18.9087 4.86711 19.8675 5.86395C20.8297 6.8569 21.5925 8.03726 22.1119 9.33694C22.6313 10.6366 22.897 12.0299 22.8936 13.4364C22.8874 19.3498 18.2462 24.1484 12.5471 24.1484ZM18.2211 16.1307C17.9118 15.9698 16.3847 15.1914 16.0974 15.0809C15.8118 14.9753 15.603 14.92 15.399 15.2418C15.1902 15.5619 14.5938 16.2915 14.4149 16.5012C14.2359 16.7173 14.0507 16.7417 13.74 16.5824C13.4307 16.4199 12.4278 16.0819 11.2412 14.9818C10.3152 14.1287 9.69519 13.0724 9.50998 12.7523C9.33105 12.4306 9.49271 12.2583 9.6481 12.0974C9.78465 11.9544 9.9573 11.7204 10.1127 11.5352C10.2696 11.3499 10.3214 11.2134 10.4235 10.9989C10.5255 10.7812 10.4768 10.5959 10.3999 10.4351C10.3214 10.2742 9.70147 8.68656 9.43935 8.04631C9.18822 7.41419 8.93238 7.50194 8.74089 7.49382C8.56196 7.48244 8.35321 7.48244 8.14446 7.48244C7.98682 7.4865 7.83169 7.52425 7.68881 7.59332C7.54592 7.66239 7.41837 7.76129 7.31416 7.88382C7.0285 8.20556 6.22959 8.98394 6.22959 10.5716C6.22959 12.1592 7.34398 13.685 7.50094 13.9012C7.65476 14.1173 9.68891 17.3657 12.8108 18.7632C13.5485 19.0963 14.1292 19.2929 14.5828 19.4424C15.3283 19.6894 16.0017 19.652 16.5385 19.5724C17.1349 19.4782 18.3764 18.7924 18.6386 18.04C18.896 17.286 18.896 16.6425 18.8175 16.5077C18.7406 16.3712 18.5318 16.2915 18.2211 16.1307Z" fill="white"/>
</svg>
