<svg width="137" height="120" viewBox="0 0 137 120" fill="none" xmlns="http://www.w3.org/2000/svg">
<g filter="url(#filter0_f_1266_22465)">
<ellipse cx="87.412" cy="43.3202" rx="13.5409" ry="12.4433" fill="#FFC701" fill-opacity="0.5"/>
</g>
<path d="M99.8247 43.7287C99.8247 49.946 94.3216 55.0823 87.4094 55.0823C80.4973 55.0823 74.9941 49.946 74.9941 43.7287C74.9941 37.5113 80.4973 32.375 87.4094 32.375C94.3216 32.375 99.8247 37.5113 99.8247 43.7287Z" fill="url(#paint0_linear_1266_22465)" stroke="url(#paint1_linear_1266_22465)" stroke-width="1.36328"/>
<mask id="mask0_1266_22465" style="mask-type:alpha" maskUnits="userSpaceOnUse" x="74" y="38" width="27" height="18">
<path d="M100.502 43.7285C100.502 50.3754 94.6387 55.7638 87.4055 55.7638C80.1723 55.7638 74.3086 50.3754 74.3086 43.7285C74.3086 37.0816 79.1734 38.6288 86.4066 38.6288C93.6398 38.6288 100.502 37.0816 100.502 43.7285Z" fill="url(#paint2_linear_1266_22465)"/>
</mask>
<g mask="url(#mask0_1266_22465)">
<g filter="url(#filter1_f_1266_22465)">
<path fill-rule="evenodd" clip-rule="evenodd" d="M97.7331 74.5308C97.7663 74.5311 97.7995 74.5313 97.8327 74.5313C103.104 74.5313 107.378 70.6041 107.378 65.7598C107.378 60.9154 103.104 56.9883 97.8327 56.9883C97.7995 56.9883 97.7663 56.9885 97.7331 56.9888V56.9883H91.6456C91.7788 56.2586 91.8481 55.509 91.8481 54.7445C91.8481 47.3089 85.2888 41.2812 77.1974 41.2812C69.106 41.2812 62.5466 47.3089 62.5466 54.7445C62.5466 55.5385 62.6214 56.3166 62.7649 57.0729C58.1233 57.668 54.5508 61.3305 54.5508 65.7598C54.5508 70.6041 58.8243 74.5313 64.096 74.5313C64.1355 74.5313 64.175 74.5311 64.2145 74.5306L64.2139 74.5313H97.7331V74.5308Z" fill="#E18700"/>
</g>
</g>
<g filter="url(#filter2_bd_1266_22465)">
<mask id="path-5-inside-1_1266_22465" fill="white">
<path fill-rule="evenodd" clip-rule="evenodd" d="M92.1823 75.5506C92.2155 75.5509 92.2487 75.5511 92.2819 75.5511C97.5536 75.5511 101.827 71.6239 101.827 66.7796C101.827 61.9352 97.5536 58.0081 92.2819 58.0081C92.2487 58.0081 92.2155 58.0082 92.1823 58.0086V58.0081H89.7082C89.7973 57.4078 89.8433 56.7949 89.8433 56.1722C89.8433 48.7367 83.2839 42.709 75.1925 42.709C67.1011 42.709 60.5417 48.7367 60.5417 56.1722C60.5417 56.8737 60.6001 57.5627 60.7127 58.2352C60.0163 58.0866 59.2907 58.0081 58.5452 58.0081C53.2735 58.0081 49 61.9352 49 66.7796C49 71.6239 53.2735 75.5511 58.5452 75.5511C58.5848 75.5511 58.6243 75.5508 58.6637 75.5504L58.6631 75.5511H92.1823V75.5506Z"/>
</mask>
<path fill-rule="evenodd" clip-rule="evenodd" d="M92.1823 75.5506C92.2155 75.5509 92.2487 75.5511 92.2819 75.5511C97.5536 75.5511 101.827 71.6239 101.827 66.7796C101.827 61.9352 97.5536 58.0081 92.2819 58.0081C92.2487 58.0081 92.2155 58.0082 92.1823 58.0086V58.0081H89.7082C89.7973 57.4078 89.8433 56.7949 89.8433 56.1722C89.8433 48.7367 83.2839 42.709 75.1925 42.709C67.1011 42.709 60.5417 48.7367 60.5417 56.1722C60.5417 56.8737 60.6001 57.5627 60.7127 58.2352C60.0163 58.0866 59.2907 58.0081 58.5452 58.0081C53.2735 58.0081 49 61.9352 49 66.7796C49 71.6239 53.2735 75.5511 58.5452 75.5511C58.5848 75.5511 58.6243 75.5508 58.6637 75.5504L58.6631 75.5511H92.1823V75.5506Z" fill="url(#paint3_linear_1266_22465)" shape-rendering="crispEdges"/>
<path d="M92.1823 75.5506L92.1951 74.1874C91.8313 74.184 91.4813 74.3261 91.2229 74.5821C90.9644 74.8381 90.819 75.1868 90.819 75.5506H92.1823ZM92.1823 58.0086H90.819C90.819 58.3723 90.9644 58.721 91.2229 58.9771C91.4813 59.2331 91.8314 59.3752 92.1951 59.3718L92.1823 58.0086ZM92.1823 58.0081H93.5456C93.5456 57.2552 92.9352 56.6448 92.1823 56.6448V58.0081ZM89.7082 58.0081L88.3597 57.808C88.3015 58.2002 88.4169 58.5983 88.6759 58.8985C88.9349 59.1988 89.3117 59.3714 89.7082 59.3714V58.0081ZM60.7127 58.2352L60.4282 59.5685C60.8695 59.6627 61.3289 59.5323 61.655 59.2204C61.9811 58.9084 62.1317 58.4553 62.0573 58.0102L60.7127 58.2352ZM58.6637 75.5504L59.6979 76.4386C60.0467 76.0324 60.1255 75.4597 59.8993 74.9744C59.6731 74.4892 59.1838 74.1812 58.6485 74.1872L58.6637 75.5504ZM58.6631 75.5511L57.6289 74.6629C57.2819 75.067 57.202 75.6361 57.4243 76.1201C57.6466 76.6041 58.1305 76.9143 58.6631 76.9143V75.5511ZM92.1823 75.5511V76.9143C92.9352 76.9143 93.5456 76.304 93.5456 75.5511H92.1823ZM92.1695 76.9138C92.2069 76.9142 92.2444 76.9143 92.2819 76.9143V74.1878C92.253 74.1878 92.224 74.1877 92.1951 74.1874L92.1695 76.9138ZM92.2819 76.9143C98.1957 76.9143 103.19 72.4831 103.19 66.7796H100.464C100.464 70.7648 96.9115 74.1878 92.2819 74.1878V76.9143ZM103.19 66.7796C103.19 61.0761 98.1957 56.6448 92.2819 56.6448V59.3714C96.9115 59.3714 100.464 62.7943 100.464 66.7796H103.19ZM92.2819 56.6448C92.2444 56.6448 92.207 56.645 92.1695 56.6453L92.1951 59.3718C92.224 59.3715 92.2529 59.3714 92.2819 59.3714V56.6448ZM90.819 58.0081V58.0086H93.5456V58.0081H90.819ZM89.7082 59.3714H92.1823V56.6448H89.7082V59.3714ZM91.0567 58.2082C91.1556 57.542 91.2066 56.8622 91.2066 56.1722H88.48C88.48 56.7277 88.439 57.2737 88.3597 57.808L91.0567 58.2082ZM91.2066 56.1722C91.2066 47.8776 83.9261 41.3457 75.1925 41.3457V44.0723C82.6418 44.0723 88.48 49.5958 88.48 56.1722H91.2066ZM75.1925 41.3457C66.459 41.3457 59.1785 47.8776 59.1785 56.1722H61.905C61.905 49.5958 67.7433 44.0723 75.1925 44.0723V41.3457ZM59.1785 56.1722C59.1785 56.9495 59.2432 57.7137 59.3681 58.4602L62.0573 58.0102C61.9571 57.4116 61.905 56.7979 61.905 56.1722H59.1785ZM60.9971 56.9019C60.2076 56.7335 59.3867 56.6448 58.5452 56.6448V59.3714C59.1948 59.3714 59.8251 59.4398 60.4282 59.5685L60.9971 56.9019ZM58.5452 56.6448C52.6314 56.6448 47.6367 61.0761 47.6367 66.7796H50.3633C50.3633 62.7943 53.9157 59.3714 58.5452 59.3714V56.6448ZM47.6367 66.7796C47.6367 72.4831 52.6314 76.9143 58.5452 76.9143V74.1878C53.9157 74.1878 50.3633 70.7648 50.3633 66.7796H47.6367ZM58.5452 76.9143C58.5898 76.9143 58.6344 76.9141 58.6789 76.9136L58.6485 74.1872C58.6141 74.1876 58.5797 74.1878 58.5452 74.1878V76.9143ZM59.6974 76.4393L59.6979 76.4386L57.6295 74.6622L57.6289 74.6629L59.6974 76.4393ZM92.1823 74.1878H58.6631V76.9143H92.1823V74.1878ZM90.819 75.5506V75.5511H93.5456V75.5506H90.819Z" fill="url(#paint4_linear_1266_22465)" mask="url(#path-5-inside-1_1266_22465)"/>
</g>
<g filter="url(#filter3_bd_1266_22465)">
<mask id="path-7-inside-2_1266_22465" fill="white">
<path fill-rule="evenodd" clip-rule="evenodd" d="M109.505 66.4432C109.533 66.4435 109.561 66.4436 109.589 66.4436C113.399 66.4436 116.487 63.6055 116.487 60.1046C116.487 56.6036 113.399 53.7655 109.589 53.7655C109.561 53.7655 109.533 53.7657 109.505 53.766V53.7655H107.729C107.794 53.3317 107.827 52.8888 107.827 52.4387C107.827 47.0651 103.086 42.709 97.2389 42.709C91.3913 42.709 86.6509 47.0651 86.6509 52.4387C86.6509 52.9458 86.6931 53.4438 86.7745 53.9299C86.2709 53.8224 85.7461 53.7655 85.2068 53.7655C81.397 53.7655 78.3086 56.6036 78.3086 60.1046C78.3086 63.6055 81.397 66.4436 85.2068 66.4436C85.2317 66.4436 85.2566 66.4435 85.2814 66.4433L85.2811 66.4436H109.505V66.4432Z"/>
</mask>
<path fill-rule="evenodd" clip-rule="evenodd" d="M109.505 66.4432C109.533 66.4435 109.561 66.4436 109.589 66.4436C113.399 66.4436 116.487 63.6055 116.487 60.1046C116.487 56.6036 113.399 53.7655 109.589 53.7655C109.561 53.7655 109.533 53.7657 109.505 53.766V53.7655H107.729C107.794 53.3317 107.827 52.8888 107.827 52.4387C107.827 47.0651 103.086 42.709 97.2389 42.709C91.3913 42.709 86.6509 47.0651 86.6509 52.4387C86.6509 52.9458 86.6931 53.4438 86.7745 53.9299C86.2709 53.8224 85.7461 53.7655 85.2068 53.7655C81.397 53.7655 78.3086 56.6036 78.3086 60.1046C78.3086 63.6055 81.397 66.4436 85.2068 66.4436C85.2317 66.4436 85.2566 66.4435 85.2814 66.4433L85.2811 66.4436H109.505V66.4432Z" fill="url(#paint5_linear_1266_22465)" shape-rendering="crispEdges"/>
<path d="M109.505 66.4432L109.52 65.08C109.156 65.076 108.805 65.2178 108.546 65.4739C108.287 65.73 108.142 66.079 108.142 66.4432H109.505ZM109.505 53.766H108.142C108.142 54.1301 108.287 54.4792 108.546 54.7352C108.805 54.9913 109.156 55.1332 109.52 55.1292L109.505 53.766ZM109.505 53.7655H110.868C110.868 53.0126 110.258 52.4022 109.505 52.4022V53.7655ZM107.729 53.7655L106.381 53.5654C106.322 53.9576 106.438 54.3557 106.697 54.656C106.956 54.9562 107.333 55.1288 107.729 55.1288V53.7655ZM86.7745 53.9299L86.4898 55.2632C86.9312 55.3574 87.3906 55.2271 87.7168 54.9152C88.043 54.6032 88.1936 54.15 88.1191 53.7049L86.7745 53.9299ZM85.2814 66.4433L86.3154 67.3317C86.6641 66.9258 86.7432 66.3535 86.5175 65.8683C86.2918 65.3831 85.8032 65.0748 85.2681 65.0801L85.2814 66.4433ZM85.2811 66.4436L84.2471 65.5552C83.8999 65.9592 83.8199 66.5285 84.0422 67.0126C84.2645 67.4966 84.7484 67.8069 85.2811 67.8069V66.4436ZM109.505 66.4436V67.8069C110.258 67.8069 110.868 67.1966 110.868 66.4436H109.505ZM109.49 67.8064C109.523 67.8067 109.556 67.8069 109.589 67.8069V65.0804C109.566 65.0804 109.543 65.0802 109.52 65.08L109.49 67.8064ZM109.589 67.8069C114.041 67.8069 117.851 64.4647 117.851 60.1046H115.124C115.124 62.7464 112.757 65.0804 109.589 65.0804V67.8069ZM117.851 60.1046C117.851 55.7445 114.041 52.4022 109.589 52.4022V55.1288C112.757 55.1288 115.124 57.4627 115.124 60.1046H117.851ZM109.589 52.4022C109.556 52.4022 109.523 52.4024 109.49 52.4028L109.52 55.1292C109.543 55.1289 109.566 55.1288 109.589 55.1288V52.4022ZM108.142 53.7655V53.766H110.868V53.7655H108.142ZM107.729 55.1288H109.505V52.4022H107.729V55.1288ZM109.078 53.9656C109.152 53.4658 109.19 52.956 109.19 52.4387H106.464C106.464 52.8215 106.435 53.1975 106.381 53.5654L109.078 53.9656ZM109.19 52.4387C109.19 46.206 103.729 41.3457 97.2389 41.3457V44.0723C102.444 44.0723 106.464 47.9242 106.464 52.4387H109.19ZM97.2389 41.3457C90.7492 41.3457 85.2876 46.206 85.2876 52.4387H88.0142C88.0142 47.9242 92.0335 44.0723 97.2389 44.0723V41.3457ZM85.2876 52.4387C85.2876 53.0216 85.3362 53.5949 85.4299 54.155L88.1191 53.7049C88.0501 53.2927 88.0142 52.8699 88.0142 52.4387H85.2876ZM87.0592 52.5967C86.4623 52.4692 85.8421 52.4022 85.2068 52.4022V55.1288C85.6501 55.1288 86.0795 55.1755 86.4898 55.2632L87.0592 52.5967ZM85.2068 52.4022C80.7549 52.4022 76.9453 55.7445 76.9453 60.1046H79.6719C79.6719 57.4627 82.0392 55.1288 85.2068 55.1288V52.4022ZM76.9453 60.1046C76.9453 64.4647 80.7549 67.8069 85.2068 67.8069V65.0804C82.0392 65.0804 79.6719 62.7464 79.6719 60.1046H76.9453ZM85.2068 67.8069C85.2361 67.8069 85.2654 67.8068 85.2947 67.8065L85.2681 65.0801C85.2477 65.0803 85.2273 65.0804 85.2068 65.0804V67.8069ZM86.3151 67.3321L86.3154 67.3317L84.2474 65.5548L84.2471 65.5552L86.3151 67.3321ZM109.505 65.0804H85.2811V67.8069H109.505V65.0804ZM108.142 66.4432V66.4436H110.868V66.4432H108.142Z" fill="url(#paint6_linear_1266_22465)" mask="url(#path-7-inside-2_1266_22465)"/>
</g>
<defs>
<filter id="filter0_f_1266_22465" x="43.8789" y="0.884802" width="87.0663" height="84.871" filterUnits="userSpaceOnUse" color-interpolation-filters="sRGB">
<feFlood flood-opacity="0" result="BackgroundImageFix"/>
<feBlend mode="normal" in="SourceGraphic" in2="BackgroundImageFix" result="shape"/>
<feGaussianBlur stdDeviation="14.9961" result="effect1_foregroundBlur_1266_22465"/>
</filter>
<filter id="filter1_f_1266_22465" x="45.0078" y="31.7383" width="71.914" height="52.3359" filterUnits="userSpaceOnUse" color-interpolation-filters="sRGB">
<feFlood flood-opacity="0" result="BackgroundImageFix"/>
<feBlend mode="normal" in="SourceGraphic" in2="BackgroundImageFix" result="shape"/>
<feGaussianBlur stdDeviation="4.77148" result="effect1_foregroundBlur_1266_22465"/>
</filter>
<filter id="filter2_bd_1266_22465" x="0.60357" y="18.8516" width="120.992" height="101.006" filterUnits="userSpaceOnUse" color-interpolation-filters="sRGB">
<feFlood flood-opacity="0" result="BackgroundImageFix"/>
<feGaussianBlur in="BackgroundImage" stdDeviation="4.77148"/>
<feComposite in2="SourceAlpha" operator="in" result="effect1_backgroundBlur_1266_22465"/>
<feColorMatrix in="SourceAlpha" type="matrix" values="0 0 0 0 0 0 0 0 0 0 0 0 0 0 0 0 0 0 127 0" result="hardAlpha"/>
<feOffset dx="-14.3144" dy="10.2246"/>
<feGaussianBlur stdDeviation="17.041"/>
<feComposite in2="hardAlpha" operator="out"/>
<feColorMatrix type="matrix" values="0 0 0 0 0.113725 0 0 0 0 0.14902 0 0 0 0 0.27451 0 0 0 0.25 0"/>
<feBlend mode="normal" in2="effect1_backgroundBlur_1266_22465" result="effect2_dropShadow_1266_22465"/>
<feBlend mode="normal" in="SourceGraphic" in2="effect2_dropShadow_1266_22465" result="shape"/>
</filter>
<filter id="filter3_bd_1266_22465" x="29.9122" y="18.8516" width="106.344" height="91.8984" filterUnits="userSpaceOnUse" color-interpolation-filters="sRGB">
<feFlood flood-opacity="0" result="BackgroundImageFix"/>
<feGaussianBlur in="BackgroundImage" stdDeviation="4.77148"/>
<feComposite in2="SourceAlpha" operator="in" result="effect1_backgroundBlur_1266_22465"/>
<feColorMatrix in="SourceAlpha" type="matrix" values="0 0 0 0 0 0 0 0 0 0 0 0 0 0 0 0 0 0 127 0" result="hardAlpha"/>
<feOffset dx="-14.3144" dy="10.2246"/>
<feGaussianBlur stdDeviation="17.041"/>
<feComposite in2="hardAlpha" operator="out"/>
<feColorMatrix type="matrix" values="0 0 0 0 0.113438 0 0 0 0 0.148981 0 0 0 0 0.275 0 0 0 0.25 0"/>
<feBlend mode="normal" in2="effect1_backgroundBlur_1266_22465" result="effect2_dropShadow_1266_22465"/>
<feBlend mode="normal" in="SourceGraphic" in2="effect2_dropShadow_1266_22465" result="shape"/>
</filter>
<linearGradient id="paint0_linear_1266_22465" x1="87.4094" y1="31.6934" x2="87.4094" y2="55.764" gradientUnits="userSpaceOnUse">
<stop stop-color="#FFE600"/>
<stop offset="1" stop-color="#FF7A00"/>
</linearGradient>
<linearGradient id="paint1_linear_1266_22465" x1="87.4094" y1="31.6934" x2="87.4094" y2="55.764" gradientUnits="userSpaceOnUse">
<stop stop-color="white"/>
<stop offset="1" stop-color="white" stop-opacity="0"/>
</linearGradient>
<linearGradient id="paint2_linear_1266_22465" x1="87.4055" y1="31.6932" x2="87.4055" y2="55.7638" gradientUnits="userSpaceOnUse">
<stop stop-color="#FFD600"/>
<stop offset="1" stop-color="#FF7A00"/>
</linearGradient>
<linearGradient id="paint3_linear_1266_22465" x1="75.4136" y1="32.2036" x2="75.4136" y2="80.1408" gradientUnits="userSpaceOnUse">
<stop stop-color="white"/>
<stop offset="1" stop-color="white" stop-opacity="0"/>
</linearGradient>
<linearGradient id="paint4_linear_1266_22465" x1="75.4136" y1="42.709" x2="75.4136" y2="75.5511" gradientUnits="userSpaceOnUse">
<stop stop-color="white"/>
<stop offset="1" stop-color="white" stop-opacity="0"/>
</linearGradient>
<linearGradient id="paint5_linear_1266_22465" x1="99.1737" y1="43.4229" x2="99.1737" y2="69.1255" gradientUnits="userSpaceOnUse">
<stop stop-color="white"/>
<stop offset="1" stop-color="white" stop-opacity="0"/>
</linearGradient>
<linearGradient id="paint6_linear_1266_22465" x1="97.3979" y1="42.709" x2="97.3979" y2="66.4436" gradientUnits="userSpaceOnUse">
<stop stop-color="white"/>
<stop offset="1" stop-color="white" stop-opacity="0"/>
</linearGradient>
</defs>
</svg>
