<svg width="32" height="32" viewBox="0 0 32 32" fill="none" xmlns="http://www.w3.org/2000/svg">
<g clip-path="url(#clip0_823_4609)">
<path d="M28.6626 5.3335H25.7737V7.11127H28.4403V26.6668H3.55144V7.11127H6.21811V5.3335H3.32922C3.12143 5.33697 2.91636 5.38134 2.72573 5.46408C2.53509 5.54682 2.36262 5.6663 2.21817 5.81571C2.07371 5.96512 1.96011 6.14151 1.88384 6.33483C1.80757 6.52815 1.77013 6.7346 1.77367 6.94238V26.8357C1.77013 27.0435 1.80757 27.25 1.88384 27.4433C1.96011 27.6366 2.07371 27.813 2.21817 27.9624C2.36262 28.1118 2.53509 28.2313 2.72573 28.314C2.91636 28.3968 3.12143 28.4411 3.32922 28.4446H28.6626C28.8703 28.4411 29.0754 28.3968 29.266 28.314C29.4567 28.2313 29.6292 28.1118 29.7736 27.9624C29.9181 27.813 30.0317 27.6366 30.1079 27.4433C30.1842 27.25 30.2216 27.0435 30.2181 26.8357V6.94238C30.2216 6.7346 30.1842 6.52815 30.1079 6.33483C30.0317 6.14151 29.9181 5.96512 29.7736 5.81571C29.6292 5.6663 29.4567 5.54682 29.266 5.46408C29.0754 5.38134 28.8703 5.33697 28.6626 5.3335Z" fill="#4C1094"/>
<path d="M7.10938 12.4443H8.88715V14.2221H7.10938V12.4443Z" fill="#4C1094"/>
<path d="M12.4414 12.4443H14.2192V14.2221H12.4414V12.4443Z" fill="#4C1094"/>
<path d="M17.7773 12.4443H19.5551V14.2221H17.7773V12.4443Z" fill="#4C1094"/>
<path d="M23.1094 12.4443H24.8872V14.2221H23.1094V12.4443Z" fill="#4C1094"/>
<path d="M7.10938 16.8892H8.88715V18.6669H7.10938V16.8892Z" fill="#4C1094"/>
<path d="M12.4414 16.8892H14.2192V18.6669H12.4414V16.8892Z" fill="#4C1094"/>
<path d="M17.7773 16.8892H19.5551V18.6669H17.7773V16.8892Z" fill="#4C1094"/>
<path d="M23.1094 16.8892H24.8872V18.6669H23.1094V16.8892Z" fill="#4C1094"/>
<path d="M7.10938 21.3335H8.88715V23.1113H7.10938V21.3335Z" fill="#4C1094"/>
<path d="M12.4414 21.3335H14.2192V23.1113H12.4414V21.3335Z" fill="#4C1094"/>
<path d="M17.7773 21.3335H19.5551V23.1113H17.7773V21.3335Z" fill="#4C1094"/>
<path d="M23.1094 21.3335H24.8872V23.1113H23.1094V21.3335Z" fill="#4C1094"/>
<path d="M8.88498 8.88894C9.12073 8.88894 9.34682 8.79529 9.51352 8.62859C9.68022 8.46189 9.77387 8.2358 9.77387 8.00005V2.66672C9.77387 2.43097 9.68022 2.20488 9.51352 2.03818C9.34682 1.87148 9.12073 1.77783 8.88498 1.77783C8.64923 1.77783 8.42314 1.87148 8.25644 2.03818C8.08974 2.20488 7.99609 2.43097 7.99609 2.66672V8.00005C7.99609 8.2358 8.08974 8.46189 8.25644 8.62859C8.42314 8.79529 8.64923 8.88894 8.88498 8.88894Z" fill="#4C1094"/>
<path d="M23.1076 8.88894C23.3434 8.88894 23.5695 8.79529 23.7362 8.62859C23.9029 8.46189 23.9965 8.2358 23.9965 8.00005V2.66672C23.9965 2.43097 23.9029 2.20488 23.7362 2.03818C23.5695 1.87148 23.3434 1.77783 23.1076 1.77783C22.8719 1.77783 22.6458 1.87148 22.4791 2.03818C22.3124 2.20488 22.2188 2.43097 22.2188 2.66672V8.00005C22.2188 8.2358 22.3124 8.46189 22.4791 8.62859C22.6458 8.79529 22.8719 8.88894 23.1076 8.88894Z" fill="#4C1094"/>
<path d="M11.5508 5.3335H20.4397V7.11127H11.5508V5.3335Z" fill="#4C1094"/>
</g>
<defs>
<clipPath id="clip0_823_4609">
<rect width="32" height="32" fill="white"/>
</clipPath>
</defs>
</svg>
