<svg width="1731" height="3229" viewBox="0 0 1731 3229" fill="none" xmlns="http://www.w3.org/2000/svg">
<path d="M1120 1.99959C1120 1.99959 1107.51 1.99959 1099.5 1.99959C1093.06 1.99959 1089.44 1.99959 1083 1.99959C1081.83 1.83292 1076.8 1.79959 1066 2.99959C1052.5 4.49959 1048.5 2.99963 1016.5 7.99963C984.5 12.9996 969 13.9996 921.5 33.9996C883.5 49.9996 859.333 81.333 852 94.9996C848.333 101.333 842 119.7 846 142.5C850 165.3 854.999 179.666 856.999 184L874.499 225L898.999 275C904.999 287.333 917.699 314.2 920.499 323C923.999 334 935.499 354 940.999 381C946.499 408 949.999 425.5 946.999 450C943.999 474.5 938.999 493 921.999 520.5C908.399 542.5 875.999 570 861.499 581C843.499 593.166 791.099 621.2 725.499 636C659.899 650.8 624.165 658.166 614.499 660L443.999 688.5C406.832 695.333 331.599 709.6 327.999 712C323.499 715 289.999 718.5 241.999 735C203.599 748.2 176.999 760.833 168.499 765.5C149.665 773.833 104.899 799.3 76.4986 834.5C48.0986 869.7 34.3319 899.166 30.9986 909.5C19.6653 932.666 -2.1014 995.3 1.4986 1060.5C5.9986 1142 22 1198 46.5 1240C71 1282 85 1305 126 1348C158.8 1382.4 216 1415 240.5 1427C257.833 1434.83 297 1451.9 315 1457.5C333 1463.1 402.5 1476.5 435 1482.5L656.5 1514L853 1541.5L999.5 1564L1142 1588L1284 1616L1436.5 1656.5C1470.67 1668.17 1541.4 1692.7 1551 1697.5C1563 1703.5 1607.5 1719 1649.5 1749.5C1683.1 1773.9 1705.83 1814.67 1713 1832" stroke="black" stroke-opacity="0.5" stroke-width="2" stroke-dasharray="10 10"/>
<path d="M1713 1832C1715.5 1836.67 1721.3 1851.8 1724.5 1875C1727.7 1898.2 1728.83 1921 1729 1929.5C1729.67 1936.17 1728.8 1955.7 1720 1980.5C1711.2 2005.3 1697.33 2030.83 1691.5 2040.5C1688.17 2045.33 1679.1 2057.5 1669.5 2067.5C1659.9 2077.5 1650.83 2087 1647.5 2090.5C1638 2099.5 1615 2120.2 1599 2131C1583 2141.8 1566.67 2152.83 1560.5 2157L1498.5 2193C1487.17 2199.17 1459 2214.2 1437 2225C1415 2235.8 1394.5 2245.83 1387 2249.5L1342.5 2272C1335 2276 1319 2284.7 1315 2287.5C1310 2291 1309 2290 1296.5 2299.5C1286.5 2307.1 1276.5 2309.67 1274 2312C1271.67 2314.17 1256.5 2319.6 1254.5 2322C1252.5 2324.4 1229.33 2334 1228 2336L1089 2404L1031 2432.5C999.834 2448.5 927.601 2488.9 888.001 2522.5C848.401 2556.1 805.834 2601.5 789.501 2620C777.503 2641 767.501 2656.5 762.501 2739.5C755.976 2847.81 774.501 2869 782.001 2911C788.001 2944.6 845.166 3022.67 861.5 3055.5C877.834 3088.33 906.003 3140.64 906.003 3178.5C906.003 3200 899 3226.5 899 3229" stroke="black" stroke-opacity="0.5" stroke-width="2" stroke-dasharray="10 10"/>
</svg>
