<svg width="27" height="27" viewBox="0 0 27 27" fill="none" xmlns="http://www.w3.org/2000/svg">
<path d="M24.8281 21.375C24.8281 21.9971 24.3428 22.5 23.7448 22.5L9.66146 22.5C9.06346 22.5 8.57812 21.9971 8.57812 21.375C8.57812 20.7529 9.06346 20.25 9.66146 20.25L23.7448 20.25C24.3428 20.25 24.8281 20.7529 24.8281 21.375ZM4.24479 14.625L23.7448 14.625C24.3428 14.625 24.8281 14.1221 24.8281 13.5C24.8281 12.8779 24.3428 12.375 23.7448 12.375L4.24479 12.375C3.64679 12.375 3.16146 12.8779 3.16146 13.5C3.16146 14.1221 3.64679 14.625 4.24479 14.625ZM13.9948 6.75L23.7448 6.75C24.3428 6.75 24.8281 6.24713 24.8281 5.625C24.8281 5.00288 24.3428 4.5 23.7448 4.5L13.9948 4.5C13.3968 4.5 12.9115 5.00288 12.9115 5.625C12.9115 6.24712 13.3968 6.75 13.9948 6.75Z" fill="white"/>
</svg>
