<svg width="26" height="27" viewBox="0 0 26 27" fill="none" xmlns="http://www.w3.org/2000/svg">
<path d="M23.832 21.375C23.832 21.9971 23.3467 22.5 22.7487 22.5L8.66536 22.5C8.06736 22.5 7.58203 21.9971 7.58203 21.375C7.58203 20.7529 8.06736 20.25 8.66536 20.25L22.7487 20.25C23.3467 20.25 23.832 20.7529 23.832 21.375ZM3.2487 14.625L22.7487 14.625C23.3467 14.625 23.832 14.1221 23.832 13.5C23.832 12.8779 23.3467 12.375 22.7487 12.375L3.2487 12.375C2.6507 12.375 2.16536 12.8779 2.16536 13.5C2.16536 14.1221 2.6507 14.625 3.2487 14.625ZM12.9987 6.75L22.7487 6.75C23.3467 6.75 23.832 6.24713 23.832 5.625C23.832 5.00288 23.3467 4.5 22.7487 4.5L12.9987 4.5C12.4007 4.5 11.9154 5.00288 11.9154 5.625C11.9154 6.24713 12.4007 6.75 12.9987 6.75Z" fill="black"/>
</svg>
