<svg width="34" height="35" viewBox="0 0 34 35" fill="none" xmlns="http://www.w3.org/2000/svg">
<path d="M30.7456 29.4039L24.3164 22.8271C25.9354 20.729 26.9113 18.0875 26.9113 15.2142C26.9113 8.42287 21.5105 2.89795 14.8717 2.89795C8.23288 2.89795 2.83203 8.42287 2.83203 15.2142C2.83203 22.0055 8.23288 27.5304 14.8717 27.5304C17.6819 27.5304 20.2626 26.5335 22.3136 24.8759L28.7428 31.4528C29.019 31.7354 29.3816 31.8773 29.7442 31.8773C30.1068 31.8773 30.4694 31.7354 30.7456 31.4528C31.2994 30.8863 31.2994 29.9704 30.7456 29.4039ZM5.66489 15.2142C5.66489 10.0211 9.7952 5.79589 14.8717 5.79589C19.9482 5.79589 24.0785 10.0211 24.0785 15.2142C24.0785 20.4073 19.9482 24.6325 14.8717 24.6325C9.7952 24.6325 5.66489 20.4073 5.66489 15.2142Z" fill="white"/>
</svg>
