<svg width="30" height="30" viewBox="0 0 30 30" fill="none" xmlns="http://www.w3.org/2000/svg">
<path d="M28.7456 27.4024L22.3164 20.8256C23.9354 18.7275 24.9113 16.086 24.9113 13.2127C24.9113 6.4214 19.5105 0.896484 12.8717 0.896484C6.23288 0.896484 0.832031 6.4214 0.832031 13.2127C0.832031 20.004 6.23288 25.5289 12.8717 25.5289C15.6819 25.5289 18.2626 24.532 20.3136 22.8744L26.7428 29.4514C27.019 29.7339 27.3816 29.8759 27.7442 29.8759C28.1068 29.8759 28.4694 29.7339 28.7456 29.4514C29.2994 28.8848 29.2994 27.969 28.7456 27.4024ZM3.66489 13.2127C3.66489 8.01961 7.7952 3.79442 12.8717 3.79442C17.9482 3.79442 22.0785 8.01961 22.0785 13.2127C22.0785 18.4058 17.9482 22.631 12.8717 22.631C7.7952 22.631 3.66489 18.4058 3.66489 13.2127Z" fill="black"/>
</svg>
