<svg width="21" height="20" viewBox="0 0 21 20" fill="none" xmlns="http://www.w3.org/2000/svg">
<path d="M15.3081 0.8125H6.17563C3.65376 0.8125 1.60938 2.82722 1.60938 5.3125V14.3125C1.60938 16.7978 3.65376 18.8125 6.17563 18.8125H15.3081C17.83 18.8125 19.8744 16.7978 19.8744 14.3125V5.3125C19.8744 2.82722 17.83 0.8125 15.3081 0.8125Z" stroke="white" stroke-width="1.62099" stroke-linecap="round" stroke-linejoin="round"/>
<path d="M14.3956 9.24809C14.5083 9.99721 14.3785 10.7623 14.0246 11.4345C13.6707 12.1067 13.1108 12.6518 12.4245 12.9923C11.7382 13.3327 10.9604 13.4512 10.2018 13.3309C9.44319 13.2106 8.7424 12.8576 8.19909 12.3221C7.65578 11.7866 7.29762 11.0959 7.17555 10.3482C7.05348 9.60053 7.17372 8.83395 7.51917 8.1575C7.86461 7.48105 8.41767 6.92918 9.09968 6.58039C9.7817 6.2316 10.5579 6.10365 11.318 6.21473C12.0932 6.32804 12.811 6.6841 13.3652 7.23033C13.9194 7.77655 14.2807 8.48397 14.3956 9.24809Z" stroke="white" stroke-width="1.62099" stroke-linecap="round" stroke-linejoin="round"/>
<path d="M15.7729 4.8623H15.7834" stroke="white" stroke-width="1.62099" stroke-linecap="round" stroke-linejoin="round"/>
</svg>
