<svg width="15" height="14" viewBox="0 0 15 14" fill="none" xmlns="http://www.w3.org/2000/svg">
<path d="M6.20525 6.7293L0.544739 1.97878C1.16842 0.793443 2.28947 0 3.55263 0H11.4474C12.7105 0 13.8237 0.7841 14.4553 1.96943L8.8105 6.71061C8.01314 7.33595 6.98683 7.33596 6.20525 6.7293ZM14.9842 3.82676L9.71052 8.25075C9.03157 8.78275 8.25789 9.04395 7.4921 9.04395C6.7342 9.04395 5.9763 8.78276 5.31314 8.26009L0.0158049 3.82676C0.00791016 3.94809 0 4.07867 0 4.2V9.8C0 12.1147 1.59474 14 3.55263 14H11.4474C13.4053 14 15 12.1147 15 9.8V4.2C15 4.07867 14.9921 3.94809 14.9842 3.82676Z" fill="#197D9F"/>
</svg>
