<svg width="16" height="18" viewBox="0 0 16 18" fill="none" xmlns="http://www.w3.org/2000/svg">
<path d="M15.9995 13.43V15.9804C16.0004 16.2171 15.9545 16.4515 15.8648 16.6684C15.775 16.8853 15.6434 17.0801 15.4783 17.2401C15.3132 17.4002 15.1183 17.522 14.906 17.5979C14.6938 17.6737 14.4689 17.7019 14.2457 17.6806C11.7702 17.3964 9.39235 16.5025 7.30312 15.0708C5.35937 13.7656 3.71141 12.0241 2.47627 9.9701C1.11669 7.75234 0.270593 5.22733 0.00652969 2.59965C-0.0135738 2.36456 0.0128649 2.12763 0.0841619 1.90394C0.155459 1.68024 0.270052 1.47469 0.420646 1.30035C0.57124 1.12602 0.754535 0.986739 0.958861 0.891368C1.16319 0.795996 1.38407 0.746627 1.60744 0.746405H4.02086C4.41128 0.742345 4.78977 0.88844 5.0858 1.15746C5.38182 1.42648 5.57517 1.80007 5.62981 2.20859C5.73168 3.02476 5.92059 3.82612 6.19295 4.5974C6.30118 4.90168 6.32461 5.23236 6.26045 5.55028C6.19629 5.86819 6.04723 6.16 5.83093 6.39114L4.80925 7.47078C5.95446 9.59907 7.62206 11.3613 9.6361 12.5714L10.6578 11.4918C10.8765 11.2632 11.1527 11.1057 11.4535 11.0379C11.7544 10.9701 12.0673 10.9949 12.3552 11.1092C13.0851 11.3971 13.8435 11.5967 14.6158 11.7043C15.0066 11.7626 15.3635 11.9706 15.6186 12.2888C15.8737 12.607 16.0093 13.0131 15.9995 13.43Z" fill="#197D9F"/>
</svg>
