<svg width="12" height="16" viewBox="0 0 12 16" fill="none" xmlns="http://www.w3.org/2000/svg">
<path d="M7.6 6.31579C7.6 7.24211 6.88 8 6 8C5.12 8 4.4 7.24211 4.4 6.31579C4.4 5.38947 5.12 4.63158 6 4.63158C6.88 4.63158 7.6 5.38947 7.6 6.31579ZM12 6.31579C12 11.4358 8.264 14.6442 6.664 15.781C6.464 15.9326 6.232 16 6 16C5.768 16 5.536 15.9326 5.328 15.781C3.728 14.6442 0 11.4442 0 6.31579C0 2.71158 2.576 0 6 0C9.416 0 12 2.71158 12 6.31579ZM9.2 6.31579C9.2 4.45474 7.768 2.94737 6 2.94737C4.232 2.94737 2.8 4.45474 2.8 6.31579C2.8 8.17684 4.232 9.68421 6 9.68421C7.768 9.68421 9.2 8.17684 9.2 6.31579Z" fill="#197D9F"/>
</svg>
