<svg width="16" height="17" viewBox="0 0 16 17" fill="none" xmlns="http://www.w3.org/2000/svg">
<path d="M11.9899 0.461914H4.01041C1.81201 0.461914 0.0234375 2.24447 0.0234375 4.43548V12.4532C0.0234375 14.6441 1.81201 16.4269 4.01041 16.4269H11.9899C14.1883 16.4269 15.9768 14.6441 15.9768 12.4532V4.43547C15.9768 2.24447 14.1883 0.461914 11.9899 0.461914ZM14.5002 12.4532C14.5002 13.8326 13.3741 14.9551 11.9899 14.9551H4.01043C2.62621 14.9551 1.50011 13.8326 1.50011 12.4532V7.27484H4.65445C4.42416 7.76193 4.29464 8.30531 4.29464 8.87833C4.29464 10.9597 5.99352 12.6527 8.08177 12.6527C10.17 12.6527 11.8689 10.9597 11.8689 8.87833C11.8689 8.30531 11.7394 7.76191 11.5091 7.27484H14.5002L14.5002 12.4532ZM6.50965 8.87836C6.50965 8.01452 7.21488 7.31159 8.08179 7.31159C8.94873 7.31159 9.65392 8.01454 9.65392 8.87836C9.65392 9.74238 8.94873 10.4452 8.08179 10.4452C7.21489 10.4452 6.50965 9.74238 6.50965 8.87836ZM14.5002 5.80318H10.2734C9.65419 5.36369 8.89814 5.10406 8.08179 5.10406C7.26544 5.10406 6.50929 5.36369 5.89022 5.80318H1.50011V4.43548C1.50011 3.05591 2.62621 1.93361 4.01043 1.93361H11.9899C13.3741 1.93361 14.5002 3.05591 14.5002 4.43548V5.80318ZM12.9001 2.82617H11.5313C11.2876 2.82617 11.0883 3.02486 11.0883 3.26767V4.63193C11.0883 4.87473 11.2876 5.07343 11.5313 5.07343H12.9001C13.1438 5.07343 13.3431 4.87473 13.3431 4.63193V3.26767C13.3431 3.02486 13.1438 2.82617 12.9001 2.82617Z" fill="white"/>
</svg>
