<svg width="19" height="20" viewBox="0 0 19 20" fill="none" xmlns="http://www.w3.org/2000/svg">
<g clip-path="url(#clip0_78_1446)">
<path d="M15.8461 3.52547C14.9914 2.66293 13.9737 1.97911 12.8521 1.51384C11.7306 1.04858 10.5277 0.811184 9.31343 0.815487C4.22551 0.815487 0.0789815 4.96085 0.0743212 10.0499C0.0743212 11.6799 0.500742 13.2656 1.30581 14.6695L-0.000244141 19.4568L4.89777 18.1729C6.25276 18.9103 7.77078 19.2968 9.31343 19.2972H9.31809C14.4072 19.2972 18.5525 15.1518 18.5572 10.0581C18.5584 8.84413 18.3193 7.64193 17.8538 6.52076C17.3883 5.39959 16.7055 4.38161 15.8449 3.52547H15.8461ZM9.31343 17.7337C7.93746 17.7341 6.58679 17.3639 5.40341 16.6618L5.12379 16.494L2.21807 17.256L2.99402 14.4213L2.81227 14.1289C2.04309 12.9059 1.63629 11.49 1.63903 10.0453C1.63903 5.82068 5.08418 2.37437 9.31809 2.37437C10.3268 2.37256 11.3258 2.57042 12.2576 2.95655C13.1894 3.34268 14.0356 3.90944 14.7474 4.62414C15.4616 5.33607 16.0278 6.18236 16.4134 7.1142C16.7989 8.04604 16.9961 9.04499 16.9937 10.0534C16.989 14.2932 13.5438 17.7337 9.31343 17.7337ZM13.5252 11.9851C13.2957 11.8698 12.1621 11.3117 11.9488 11.2325C11.7368 11.1568 11.5818 11.1172 11.4304 11.3478C11.2754 11.5774 10.8327 12.1005 10.6999 12.2508C10.5671 12.4057 10.4296 12.4232 10.1989 12.309C9.96937 12.1925 9.22488 11.9502 8.34408 11.1614C7.65668 10.5498 7.19647 9.79245 7.05899 9.56293C6.92618 9.33224 7.04618 9.20875 7.16152 9.0934C7.26288 8.99088 7.39104 8.8231 7.50639 8.69028C7.62289 8.55746 7.66134 8.4596 7.73707 8.30581C7.8128 8.14969 7.77669 8.01687 7.7196 7.90152C7.66134 7.78618 7.20113 6.64789 7.00657 6.18885C6.82015 5.73563 6.63024 5.79855 6.4881 5.79272C6.35528 5.78457 6.20033 5.78457 6.04537 5.78457C5.92836 5.78748 5.8132 5.81454 5.70714 5.86406C5.60108 5.91358 5.5064 5.98449 5.42904 6.07234C5.217 6.30303 4.62397 6.8611 4.62397 7.99939C4.62397 9.13768 5.45118 10.2317 5.56769 10.3866C5.68187 10.5416 7.19181 12.8706 9.50916 13.8726C10.0568 14.1114 10.4878 14.2524 10.8245 14.3596C11.378 14.5367 11.8778 14.5099 12.2762 14.4528C12.719 14.3852 13.6405 13.8935 13.8351 13.3541C14.0262 12.8135 14.0262 12.3521 13.9679 12.2554C13.9108 12.1576 13.7559 12.1005 13.5252 11.9851Z" fill="white"/>
</g>
<defs>
<clipPath id="clip0_78_1446">
<rect width="18.6413" height="18.6413" fill="white" transform="translate(0 0.8125)"/>
</clipPath>
</defs>
</svg>
