<svg width="51" height="51" viewBox="0 0 51 51" fill="none" xmlns="http://www.w3.org/2000/svg">
<path d="M32.6072 28.8246V31.0901C32.608 31.3004 32.5672 31.5086 32.4875 31.7013C32.4078 31.894 32.2908 32.067 32.1442 32.2091C31.9975 32.3513 31.8244 32.4596 31.6358 32.5269C31.4473 32.5943 31.2475 32.6194 31.0493 32.6004C28.8503 32.3479 26.7379 31.5539 24.882 30.2821C23.1554 29.1226 21.6915 27.5757 20.5943 25.751C19.3865 23.781 18.6349 21.5379 18.4003 19.2037C18.3825 18.9949 18.406 18.7844 18.4693 18.5857C18.5326 18.387 18.6344 18.2044 18.7682 18.0495C18.902 17.8947 19.0648 17.7709 19.2463 17.6862C19.4278 17.6015 19.624 17.5576 19.8224 17.5574H21.9663C22.3132 17.5538 22.6494 17.6836 22.9123 17.9226C23.1753 18.1616 23.3471 18.4934 23.3956 18.8563C23.4861 19.5814 23.6539 20.2932 23.8958 20.9784C23.992 21.2487 24.0128 21.5424 23.9558 21.8248C23.8988 22.1072 23.7664 22.3664 23.5743 22.5718L22.6667 23.5308C23.684 25.4214 25.1654 26.9868 26.9545 28.0619L27.8621 27.1028C28.0564 26.8998 28.3017 26.7598 28.5689 26.6996C28.8362 26.6394 29.1141 26.6614 29.3699 26.763C30.0183 27.0186 30.6919 27.196 31.378 27.2916C31.7252 27.3433 32.0422 27.5281 32.2689 27.8108C32.4955 28.0934 32.6159 28.4542 32.6072 28.8246Z" fill="white"/>
</svg>
