<svg width="15" height="19" viewBox="0 0 15 19" fill="none" xmlns="http://www.w3.org/2000/svg">
<path d="M6.625 10.291V13.875C6.625 14.3589 7.017 14.75 7.5 14.75C7.983 14.75 8.375 14.3589 8.375 13.875V10.291C10.6115 9.87805 12.3125 7.91625 12.3125 5.5625C12.3125 2.9095 10.1539 0.75 7.5 0.75C4.84613 0.75 2.6875 2.9095 2.6875 5.5625C2.6875 7.91625 4.3885 9.87805 6.625 10.291ZM7.5 2.5C9.18875 2.5 10.5625 3.87375 10.5625 5.5625C10.5625 7.25125 9.18875 8.625 7.5 8.625C5.81125 8.625 4.4375 7.25125 4.4375 5.5625C4.4375 3.87375 5.81125 2.5 7.5 2.5ZM14.5 14.75C14.5 17.0477 10.979 18.25 7.5 18.25C4.021 18.25 0.5 17.0477 0.5 14.75C0.5 13.2607 2.07063 12.0533 4.70175 11.5213C5.176 11.4233 5.63713 11.7322 5.73251 12.2055C5.82876 12.6789 5.5225 13.1409 5.04825 13.2371C3.139 13.623 2.25 14.3685 2.25 14.75C2.25 15.3669 4.24325 16.5 7.5 16.5C10.7568 16.5 12.75 15.3669 12.75 14.75C12.75 14.3676 11.8601 13.623 9.95175 13.2371C9.4775 13.1417 9.17124 12.6789 9.26749 12.2055C9.36287 11.7313 9.8275 11.4233 10.2982 11.5213C12.9294 12.0533 14.5 13.2607 14.5 14.75Z" fill="#42D6FF"/>
</svg>
