<svg width="27" height="27" viewBox="0 0 27 27" fill="none" xmlns="http://www.w3.org/2000/svg">
<path d="M13.5 0C6.0615 0 0 6.0615 0 13.5C0 20.9385 6.0615 27 13.5 27C20.9385 27 27 20.9385 27 13.5C27 6.0615 20.9385 0 13.5 0ZM19.8585 11.7584L13.1085 18.5084C12.8385 18.7649 12.501 18.9 12.15 18.9C11.799 18.9 11.4615 18.7649 11.1915 18.5084L7.14151 14.4584C6.61501 13.9319 6.61501 13.0681 7.14151 12.5416C7.66801 12.0151 8.53199 12.0151 9.05849 12.5416L12.15 15.6466L17.9415 9.84155C18.468 9.31505 19.332 9.31505 19.8585 9.84155C20.385 10.3681 20.385 11.2319 19.8585 11.7584Z" fill="#197D9F"/>
</svg>
