<svg width="21" height="21" viewBox="0 0 21 21" fill="none" xmlns="http://www.w3.org/2000/svg">
<path d="M9.54169 13.3758V16.2508C9.54169 16.7807 9.11235 17.2091 8.58335 17.2091C8.05435 17.2091 7.62502 16.7807 7.62502 16.2508V13.3758C7.62502 12.8458 8.05435 12.4174 8.58335 12.4174C9.11235 12.4174 9.54169 12.8458 9.54169 13.3758ZM12.4167 12.4174C11.8877 12.4174 11.4584 12.8458 11.4584 13.3758V16.2508C11.4584 16.7807 11.8877 17.2091 12.4167 17.2091C12.9457 17.2091 13.375 16.7807 13.375 16.2508V13.3758C13.375 12.8458 12.9457 12.4174 12.4167 12.4174ZM18.5778 11.0959L17.8581 16.7357C17.6147 18.6437 15.9798 20.0832 14.0554 20.0832H6.9657C5.04807 20.0832 3.41411 18.6495 3.16495 16.7482L2.42414 11.0968C1.53098 10.608 0.916687 9.67181 0.916687 8.5841C0.916687 6.99902 2.2066 5.7091 3.79169 5.7091H5.16593L7.76207 1.38221C8.03423 0.927961 8.6217 0.781319 9.07691 1.05349C9.53116 1.32565 9.67777 1.91414 9.40561 2.36839L7.40173 5.70816H13.6002L11.5964 2.36839C11.3242 1.91414 11.4708 1.32565 11.9251 1.05349C12.3793 0.781319 12.9677 0.927961 13.2399 1.38221L15.836 5.7091H17.2084C18.7934 5.7091 20.0834 6.99902 20.0834 8.5841C20.0834 9.67085 19.47 10.6071 18.5778 11.0959ZM2.83335 8.5841C2.83335 9.1131 3.26365 9.54243 3.79169 9.54243H17.2084C17.7364 9.54243 18.1667 9.1131 18.1667 8.5841C18.1667 8.0551 17.7364 7.62577 17.2084 7.62577H3.79169C3.26365 7.62577 2.83335 8.0551 2.83335 8.5841ZM16.5989 11.4591H4.40503L5.06626 16.4999C5.18988 17.4506 6.00737 18.1674 6.9657 18.1674H14.0554C15.0176 18.1674 15.8351 17.4478 15.9558 16.4942L16.5989 11.4591Z" fill="#42D6FF"/>
</svg>
